<?xml version="1.0" standalone="no"?>
<!DOCTYPE svg PUBLIC "-//W3C//DTD SVG 20010904//EN"
 "http://www.w3.org/TR/2001/REC-SVG-20010904/DTD/svg10.dtd">
<svg version="1.0" xmlns="http://www.w3.org/2000/svg"
 width="512.000000pt" height="512.000000pt" viewBox="0 0 512.000000 512.000000"
 preserveAspectRatio="xMidYMid meet">

<g transform="translate(0.000000,512.000000) scale(0.100000,-0.100000)"
fill="#000000" stroke="none">
<path d="M1345 5114 c-88 -10 -214 -37 -304 -66 -520 -166 -895 -586 -1013
-1132 -29 -136 -31 -450 -4 -631 56 -368 191 -743 374 -1039 183 -296 438
-541 676 -651 l76 -36 -25 -49 c-96 -190 -64 -388 88 -542 79 -80 175 -141
394 -248 205 -100 283 -147 302 -184 17 -32 6 -66 -59 -176 -44 -75 -50 -92
-50 -142 0 -70 12 -103 53 -147 81 -85 207 -94 292 -20 80 71 172 261 194 405
29 189 -60 359 -259 494 -36 24 -171 97 -300 161 -129 64 -247 128 -262 142
-25 23 -26 29 -17 56 16 45 102 183 119 191 8 4 54 17 102 28 242 58 481 220
687 467 282 339 492 837 557 1325 23 170 23 424 0 555 -96 547 -483 996 -1006
1169 -58 19 -145 42 -195 51 -88 16 -341 27 -420 19z m1115 -1522 c31 -19 53
-43 73 -82 27 -52 29 -60 23 -135 -9 -107 -40 -260 -77 -370 -45 -138 -152
-346 -198 -388 -68 -62 -155 -73 -238 -32 -118 59 -151 199 -76 318 71 112
136 295 154 434 19 149 33 186 84 231 77 68 168 76 255 24z"/>
<path d="M3680 4899 c-169 -19 -352 -78 -504 -163 -36 -20 -68 -41 -71 -46 -4
-6 10 -37 30 -70 54 -89 149 -294 178 -385 31 -96 61 -214 79 -315 20 -113 17
-504 -5 -650 -57 -370 -142 -654 -287 -957 l-68 -142 62 -73 c35 -41 87 -95
117 -122 52 -46 193 -143 257 -178 l30 -16 -23 -59 c-42 -104 -55 -171 -55
-288 1 -126 20 -200 80 -299 70 -117 193 -212 455 -356 170 -93 264 -156 290
-196 30 -46 16 -140 -35 -237 -39 -76 -42 -85 -38 -148 5 -85 38 -137 111
-174 131 -65 245 -7 331 168 54 112 70 185 71 322 0 114 -2 123 -32 187 -95
202 -228 327 -473 446 -152 74 -270 151 -307 199 -24 31 -28 46 -28 99 0 54 7
75 52 165 l51 104 82 18 c179 40 392 179 546 355 288 329 484 817 534 1327 30
315 -4 560 -110 782 -66 139 -137 240 -245 348 -174 175 -388 288 -640 340
-98 20 -320 27 -435 14z m898 -1298 c74 -38 112 -104 112 -195 0 -85 -35 -271
-75 -391 -43 -135 -136 -325 -184 -378 -135 -150 -370 -62 -371 138 0 41 10
70 64 175 77 151 111 255 136 416 19 128 33 165 72 200 70 65 163 78 246 35z"/>
</g>
</svg>
