<?xml version="1.0" standalone="no"?>
<!DOCTYPE svg PUBLIC "-//W3C//DTD SVG 20010904//EN"
 "http://www.w3.org/TR/2001/REC-SVG-20010904/DTD/svg10.dtd">
<svg version="1.0" xmlns="http://www.w3.org/2000/svg"
 width="512.000000pt" height="512.000000pt" viewBox="0 0 512.000000 512.000000"
 preserveAspectRatio="xMidYMid meet">

<g transform="translate(0.000000,512.000000) scale(0.100000,-0.100000)"
fill="#000000" stroke="none">
<path d="M1126 5109 c-291 -43 -568 -219 -731 -463 -98 -148 -155 -303 -174
-479 -15 -133 -15 -3081 0 -3214 49 -442 359 -800 797 -921 l97 -27 1445 0
1445 0 97 27 c438 121 748 479 797 921 15 133 15 3081 0 3214 -49 441 -359
801 -794 920 l-100 28 -1410 1 c-775 1 -1437 -2 -1469 -7z m2864 -435 c175
-41 340 -172 419 -334 75 -154 71 -45 71 -1780 0 -1327 -2 -1565 -15 -1625
-49 -233 -245 -435 -475 -489 -97 -23 -2762 -24 -2858 -1 -177 42 -341 173
-421 335 -75 154 -71 45 -71 1780 0 1735 -4 1626 71 1780 78 160 243 293 414
334 93 22 2770 23 2865 0z"/>
<path d="M1614 4260 c-140 -21 -289 -102 -383 -207 -64 -71 -126 -190 -147
-279 -24 -101 -15 -267 18 -356 70 -187 205 -323 396 -397 l67 -26 985 0 985
0 70 22 c189 60 341 207 413 401 30 82 41 239 23 334 -17 88 -89 232 -151 300
-68 77 -182 151 -283 185 l-82 28 -930 1 c-511 1 -953 -2 -981 -6z m1895 -446
c90 -45 134 -140 110 -238 -16 -67 -85 -138 -151 -154 -67 -17 -1749 -17
-1816 0 -66 16 -135 87 -151 154 -24 98 20 193 110 238 l53 26 896 0 896 0 53
-26z"/>
<path d="M1233 2341 c-166 -42 -219 -251 -93 -365 135 -122 349 -26 350 157 0
54 -20 110 -53 145 -48 51 -138 79 -204 63z"/>
<path d="M2082 2340 c-84 -20 -162 -116 -162 -198 0 -123 99 -222 222 -222 51
0 135 46 163 89 62 96 54 193 -24 271 -60 60 -121 79 -199 60z"/>
<path d="M2926 2338 c-60 -16 -130 -91 -145 -154 -23 -98 22 -194 112 -239 86
-43 174 -28 243 40 153 153 0 410 -210 353z"/>
<path d="M3793 2341 c-166 -42 -219 -251 -93 -365 135 -122 349 -26 350 157 0
54 -20 110 -53 145 -48 51 -138 79 -204 63z"/>
<path d="M1194 1476 c-43 -19 -101 -82 -115 -123 -30 -92 7 -198 88 -253 31
-21 48 -25 113 -25 65 0 82 4 113 25 21 14 50 43 65 65 24 35 27 50 27 116 0
66 -3 81 -27 115 -44 63 -90 88 -167 91 -41 2 -78 -2 -97 -11z"/>
<path d="M2045 1471 c-130 -59 -164 -225 -69 -331 97 -108 273 -87 343 40 45
81 27 194 -41 257 -56 53 -159 68 -233 34z"/>
<path d="M2900 1474 c-173 -76 -161 -342 18 -394 25 -8 194 -10 518 -8 l480 3
37 25 c21 14 50 43 65 64 24 35 27 49 27 116 0 65 -4 82 -25 113 -14 21 -43
50 -64 65 l-39 27 -491 2 c-422 2 -496 0 -526 -13z"/>
</g>
</svg>
