<?xml version="1.0" standalone="no"?>
<!DOCTYPE svg PUBLIC "-//W3C//DTD SVG 20010904//EN"
 "http://www.w3.org/TR/2001/REC-SVG-20010904/DTD/svg10.dtd">
<svg version="1.0" xmlns="http://www.w3.org/2000/svg"
 width="512.000000pt" height="512.000000pt" viewBox="0 0 512.000000 512.000000"
 preserveAspectRatio="xMidYMid meet">

<g transform="translate(0.000000,512.000000) scale(0.100000,-0.100000)"
fill="#000000" stroke="none">
<path d="M1280 4905 l0 -215 -362 0 c-407 0 -439 -4 -568 -68 -110 -54 -223
-168 -279 -282 -76 -155 -71 10 -71 -2282 l0 -2058 2560 0 2560 0 0 2058 c0
1767 -2 2067 -15 2127 -49 233 -245 435 -475 489 -52 13 -138 16 -427 16
l-363 0 0 215 0 215 -215 0 -215 0 0 -215 0 -215 -850 0 -850 0 0 215 0 215
-215 0 -215 0 0 -215z m3295 -662 c50 -27 80 -58 100 -105 12 -31 15 -94 15
-383 l0 -345 -2130 0 -2130 0 0 345 c0 289 3 352 15 383 26 60 73 101 145 123
14 4 907 7 1985 6 l1960 -2 40 -22z m115 -2533 l0 -1280 -2130 0 -2130 0 0
1280 0 1280 2130 0 2130 0 0 -1280z"/>
<path d="M1497 2343 c-4 -3 -7 -100 -7 -215 l0 -208 215 0 215 0 0 215 0 215
-208 0 c-115 0 -212 -3 -215 -7z"/>
<path d="M2350 2135 l0 -215 210 0 210 0 0 215 0 215 -210 0 -210 0 0 -215z"/>
<path d="M3200 2135 l0 -215 215 0 215 0 -2 213 -3 212 -212 3 -213 2 0 -215z"/>
<path d="M1490 1280 l0 -210 215 0 215 0 0 210 0 210 -215 0 -215 0 0 -210z"/>
<path d="M2350 1280 l0 -210 210 0 210 0 0 210 0 210 -210 0 -210 0 0 -210z"/>
<path d="M3200 1280 l0 -210 215 0 215 0 0 210 0 210 -215 0 -215 0 0 -210z"/>
</g>
</svg>
