<?xml version="1.0" standalone="no"?>
<!DOCTYPE svg PUBLIC "-//W3C//DTD SVG 20010904//EN"
 "http://www.w3.org/TR/2001/REC-SVG-20010904/DTD/svg10.dtd">
<svg version="1.0" xmlns="http://www.w3.org/2000/svg"
 width="512.000000pt" height="512.000000pt" viewBox="0 0 512.000000 512.000000"
 preserveAspectRatio="xMidYMid meet">

<g transform="translate(0.000000,512.000000) scale(0.100000,-0.100000)"
fill="#000000" stroke="none">
<path d="M1413 5105 c-292 -53 -531 -230 -667 -494 -102 -198 -126 -416 -72
-656 112 -494 350 -929 703 -1282 l112 -113 -112 -112 c-353 -355 -590 -788
-702 -1283 -36 -157 -38 -317 -6 -449 81 -336 341 -598 681 -688 l85 -23 1130
0 1130 0 85 23 c335 91 583 339 676 678 9 33 18 115 21 184 4 102 1 144 -16
227 -104 505 -337 943 -695 1311 l-129 132 129 133 c345 353 562 752 685 1257
31 127 34 358 5 464 -47 174 -136 326 -261 445 -119 113 -247 185 -410 232
l-80 23 -1110 2 c-881 2 -1125 0 -1182 -11z m2224 -640 c75 -22 136 -74 172
-146 36 -73 40 -128 15 -247 -86 -416 -345 -805 -794 -1191 -116 -100 -140
-125 -167 -180 -29 -56 -33 -74 -33 -141 0 -67 4 -85 33 -141 27 -54 50 -80
147 -162 318 -271 541 -539 675 -812 89 -181 155 -406 155 -528 0 -75 -46
-165 -108 -212 -89 -68 -35 -66 -1193 -63 l-1044 3 -50 27 c-86 45 -145 124
-160 215 -15 94 66 383 160 568 74 146 184 307 303 446 109 125 186 200 360
348 149 126 192 195 192 311 0 108 -46 189 -158 281 -476 392 -752 799 -843
1244 -23 111 -20 164 13 230 37 73 106 131 188 156 14 4 489 8 1056 8 886 1
1037 -1 1081 -14z"/>
<path d="M2470 1939 c-68 -42 -221 -172 -290 -247 -86 -93 -155 -191 -215
-306 -49 -95 -56 -140 -30 -203 20 -48 41 -71 87 -94 35 -18 66 -19 538 -19
483 0 502 1 540 20 52 26 89 84 96 146 5 43 0 59 -35 132 -54 110 -143 238
-230 334 -70 75 -211 195 -281 237 -48 29 -132 29 -180 0z"/>
</g>
</svg>
