<?xml version="1.0" standalone="no"?>
<!DOCTYPE svg PUBLIC "-//W3C//DTD SVG 20010904//EN"
 "http://www.w3.org/TR/2001/REC-SVG-20010904/DTD/svg10.dtd">
<svg version="1.0" xmlns="http://www.w3.org/2000/svg"
 width="1120.000000pt" height="800.000000pt" viewBox="0 0 1120.000000 800.000000"
 preserveAspectRatio="xMidYMid meet">

<g transform="translate(0.000000,800.000000) scale(0.100000,-0.100000)"
fill="#000000" stroke="none">
<path d="M3968 7984 c-37 -7 -86 -23 -110 -34 -24 -12 -53 -23 -66 -24 -13 -2
-29 -9 -35 -15 -9 -9 -8 -11 6 -6 10 4 17 2 17 -4 0 -11 -12 -15 -40 -12 -12
2 -13 0 -1 -8 11 -7 10 -13 -7 -31 -11 -12 -24 -20 -29 -17 -5 3 -15 1 -23 -5
-12 -8 -12 -9 3 -4 23 7 22 -6 -3 -34 -11 -13 -20 -27 -20 -32 0 -5 -10 -7
-22 -4 -13 3 -17 3 -10 0 16 -8 15 -22 -3 -40 -8 -9 -15 -24 -15 -35 0 -10 -4
-19 -10 -19 -6 0 -10 -50 -10 -130 0 -71 4 -130 9 -130 4 0 11 -24 14 -52 4
-29 11 -54 17 -56 5 -2 10 -10 10 -18 0 -8 4 -14 9 -14 5 0 13 -10 17 -22 6
-20 13 -30 40 -61 6 -7 15 -23 18 -35 4 -12 11 -22 16 -22 5 0 12 -10 16 -22
3 -12 16 -32 28 -44 35 -38 46 -53 46 -62 0 -5 8 -18 18 -30 47 -58 53 -68 47
-92 -4 -20 -3 -22 5 -10 9 11 13 12 17 3 2 -7 17 -26 31 -42 15 -16 34 -39 42
-51 8 -12 22 -30 30 -40 8 -10 22 -28 30 -40 8 -12 21 -29 29 -37 12 -13 12
-16 0 -25 -10 -7 -8 -8 7 -3 22 6 40 -17 29 -36 -4 -5 1 -6 9 -3 9 3 16 2 16
-3 0 -9 8 -20 49 -69 5 -6 12 -21 16 -35 4 -13 12 -27 18 -31 6 -4 11 -23 11
-42 0 -20 3 -31 7 -24 11 18 37 -14 44 -56 4 -20 11 -36 16 -36 4 0 11 -20 15
-45 3 -25 10 -45 15 -45 4 0 11 -31 15 -70 3 -38 10 -70 15 -70 4 0 11 -31 15
-70 3 -38 10 -70 14 -70 4 0 11 -29 15 -65 3 -36 11 -65 16 -65 5 0 9 -11 9
-25 0 -14 4 -25 9 -25 5 0 11 -22 15 -50 4 -27 11 -50 15 -50 5 0 12 -18 16
-40 4 -22 10 -40 15 -40 4 0 11 -16 14 -35 4 -19 11 -35 16 -35 5 0 12 -16 16
-35 3 -19 10 -35 15 -35 5 0 9 -7 9 -15 0 -8 4 -15 9 -15 5 0 12 -13 16 -30 4
-16 11 -30 16 -30 5 0 9 -6 9 -14 0 -8 6 -21 14 -28 7 -8 17 -25 21 -38 4 -13
13 -30 19 -37 28 -32 36 -43 36 -52 0 -5 14 -24 30 -42 45 -51 50 -57 50 -67
0 -5 8 -18 18 -30 9 -11 24 -30 32 -42 8 -12 27 -36 43 -52 15 -17 27 -34 27
-39 0 -6 5 -15 10 -22 23 -27 46 -56 60 -77 8 -12 23 -31 33 -43 10 -12 16
-29 14 -38 -3 -11 0 -16 8 -13 13 5 30 -9 55 -46 14 -21 36 -49 60 -77 15 -17
7 -16 -80 11 -41 13 -74 28 -73 34 2 6 -3 9 -11 6 -19 -7 -87 23 -84 37 2 6
-4 14 -12 16 -13 4 -13 3 0 -6 13 -9 13 -11 -1 -11 -25 0 -99 39 -96 51 1 7
-5 14 -13 16 -13 4 -13 3 0 -6 24 -17 -4 -13 -51 9 -24 10 -44 25 -44 31 0 7
-7 14 -15 16 -13 4 -13 3 0 -6 17 -12 1 -15 -25 -5 -13 6 -14 9 -3 16 9 7 7 8
-8 3 -26 -7 -149 39 -149 56 0 7 -7 14 -15 16 -13 4 -13 3 0 -7 12 -9 8 -10
-17 -5 -46 9 -113 43 -110 56 1 7 -5 14 -13 16 -13 4 -13 3 0 -6 11 -8 12 -11
2 -11 -21 0 -53 20 -47 30 3 5 -3 14 -14 19 -30 16 -40 12 -11 -4 22 -13 23
-14 5 -14 -11 0 -29 6 -39 14 -13 10 -15 15 -6 15 9 0 7 5 -6 15 -10 8 -23 14
-29 15 -5 0 -3 -5 5 -10 13 -9 13 -10 0 -10 -21 0 -45 17 -45 31 0 7 -7 14
-15 16 -13 4 -13 3 0 -6 32 -23 -15 -11 -55 14 -22 13 -33 25 -25 25 8 0 -3
12 -23 26 -21 14 -41 23 -44 20 -7 -7 -83 35 -83 46 0 12 12 9 34 -7 11 -8 25
-15 30 -15 6 0 -4 9 -23 21 -18 11 -36 18 -38 15 -8 -7 -43 13 -43 24 0 5 8 7
18 3 12 -4 10 -1 -5 11 -12 9 -26 16 -30 15 -18 -3 -29 2 -58 27 -16 14 -37
30 -45 34 -8 5 -11 12 -7 16 4 4 13 2 19 -4 7 -7 17 -12 22 -12 6 0 2 6 -9 14
-11 7 -27 13 -35 13 -20 0 -70 32 -70 45 0 6 11 3 25 -6 13 -9 28 -16 32 -16
4 0 -9 11 -30 25 -20 14 -42 23 -47 20 -11 -7 -90 43 -90 57 0 5 9 4 20 -2 11
-6 20 -9 20 -7 0 6 -109 77 -117 77 -5 0 -1 -5 7 -10 12 -8 11 -10 -7 -10 -13
0 -23 4 -23 9 0 5 -38 33 -85 63 -83 53 -106 75 -62 63 12 -4 4 5 -18 18 -22
14 -43 23 -47 21 -4 -3 -33 12 -65 32 -66 42 -101 74 -81 74 9 0 9 3 -2 9 -8
6 -17 8 -21 5 -9 -5 -139 75 -139 85 0 4 -22 20 -50 36 -27 17 -50 33 -50 38
0 11 14 8 36 -8 10 -8 23 -15 29 -15 20 0 -39 33 -62 36 -14 1 -34 12 -44 23
-10 11 -27 24 -36 30 -10 5 -14 13 -10 17 4 4 13 2 19 -4 7 -7 17 -12 22 -12
6 0 1 7 -11 15 -12 9 -26 15 -30 14 -19 -3 -33 2 -33 12 0 6 7 8 16 5 9 -3 12
-2 9 4 -4 6 -12 10 -18 9 -25 -3 -36 2 -66 28 -35 31 -40 45 -13 37 14 -5 14
-4 2 4 -8 6 -17 9 -22 6 -9 -6 -48 18 -48 29 0 5 7 6 16 3 9 -3 12 -2 9 5 -4
6 -13 8 -19 6 -7 -3 -19 -1 -27 4 -12 8 -12 11 1 19 13 10 13 11 0 9 -28 -3
-37 1 -64 26 -29 27 -34 40 -10 31 9 -3 12 -2 9 4 -4 6 -12 10 -18 9 -24 -3
-37 1 -37 12 0 6 7 8 16 5 9 -3 12 -2 9 5 -4 6 -13 8 -21 5 -8 -3 -26 6 -40
19 -15 14 -31 25 -35 25 -5 0 -9 5 -9 11 0 6 9 8 23 4 19 -5 20 -4 4 5 -9 6
-21 9 -26 6 -5 -3 -21 6 -36 20 -23 21 -25 28 -14 36 12 8 12 9 -1 5 -16 -5
-70 22 -70 35 0 11 18 10 25 -2 3 -5 11 -10 18 -10 6 0 3 6 -8 14 -11 7 -28
13 -37 13 -22 0 -149 83 -143 94 3 4 -3 13 -14 18 -25 14 -41 14 -21 1 24 -15
-3 -12 -51 7 -36 14 -79 17 -234 18 -206 0 -282 -10 -510 -68 -66 -16 -133
-30 -148 -30 -16 0 -23 -3 -17 -7 8 -5 7 -9 -5 -14 -26 -10 -42 -7 -25 5 13 9
13 10 0 6 -8 -2 -14 -9 -13 -15 3 -12 -155 -115 -166 -108 -4 3 -13 0 -21 -6
-12 -8 -12 -9 3 -4 9 3 17 1 17 -4 0 -12 -32 -28 -47 -23 -6 2 -14 -1 -18 -6
-3 -7 0 -8 9 -5 9 3 16 1 16 -5 0 -11 -12 -15 -40 -12 -12 2 -12 0 -2 -7 11
-7 3 -20 -32 -56 -25 -26 -50 -45 -56 -41 -5 3 -7 0 -5 -8 3 -7 -3 -24 -15
-37 -11 -13 -20 -29 -20 -37 0 -7 -4 -13 -10 -13 -5 0 -12 -11 -16 -25 -3 -14
-10 -25 -15 -25 -5 0 -9 -7 -9 -15 0 -8 -4 -15 -10 -15 -5 0 -12 -16 -16 -35
-3 -19 -10 -35 -14 -35 -5 0 -11 -22 -15 -50 -4 -27 -11 -50 -15 -50 -4 0 -11
-22 -15 -50 -4 -27 -10 -50 -15 -50 -4 0 -11 -25 -15 -55 -3 -30 -11 -55 -16
-55 -5 0 -9 -9 -9 -20 0 -11 -4 -20 -9 -20 -5 0 -12 -20 -15 -45 -4 -25 -11
-45 -16 -45 -4 0 -11 -18 -15 -40 -4 -22 -11 -40 -15 -40 -5 0 -12 -20 -16
-45 -3 -25 -10 -45 -14 -45 -5 0 -12 -25 -15 -55 -4 -30 -11 -55 -16 -55 -4 0
-11 -22 -15 -50 -4 -27 -10 -50 -15 -50 -5 0 -9 -13 -9 -30 0 -16 -4 -30 -9
-30 -5 0 -12 -22 -16 -50 -4 -27 -10 -50 -15 -50 -4 0 -11 -20 -14 -45 -4 -25
-11 -45 -15 -45 -5 0 -12 -20 -15 -45 -4 -25 -11 -45 -15 -45 -5 0 -12 -25
-16 -55 -3 -30 -11 -55 -16 -55 -5 0 -9 -13 -9 -29 0 -16 -4 -31 -9 -33 -6 -1
-13 -32 -17 -68 -4 -36 -10 -67 -14 -70 -4 -3 -11 -48 -15 -100 -4 -52 -11
-97 -15 -100 -4 -3 -11 -43 -15 -90 -4 -47 -11 -87 -15 -90 -4 -3 -11 -54 -15
-115 -4 -60 -11 -112 -15 -115 -4 -3 -11 -54 -15 -115 -4 -60 -11 -111 -16
-113 -12 -5 -12 -699 0 -704 4 -1 11 -50 15 -108 4 -57 11 -107 15 -110 5 -3
12 -47 16 -97 4 -51 11 -93 15 -93 5 0 12 -29 15 -65 4 -36 11 -65 15 -65 5 0
11 -27 15 -60 4 -33 10 -60 15 -60 4 0 10 -23 14 -50 4 -28 11 -50 16 -50 6 0
10 -9 10 -20 0 -11 4 -20 9 -20 5 0 12 -18 16 -40 4 -22 10 -40 15 -40 4 0 11
-16 14 -35 4 -19 11 -35 16 -35 4 0 11 -13 15 -30 4 -16 10 -30 15 -30 5 0 11
-14 15 -30 4 -17 11 -30 16 -30 5 0 9 -7 9 -15 0 -8 4 -15 9 -15 5 0 12 -11
15 -25 4 -14 11 -25 16 -25 6 0 10 -6 10 -14 0 -8 6 -21 14 -28 7 -8 17 -24
20 -36 4 -12 12 -22 17 -22 5 0 9 -6 9 -13 0 -14 21 -45 58 -82 12 -13 22 -28
22 -33 0 -8 13 -25 51 -71 9 -10 9 -15 -2 -23 -11 -8 -10 -9 3 -4 10 3 24 -1
30 -10 22 -25 97 -107 140 -152 33 -35 38 -46 27 -53 -12 -8 -12 -10 1 -8 28
3 40 -1 40 -12 0 -6 -7 -8 -17 -5 -10 4 -14 3 -9 -1 4 -4 17 -8 29 -8 11 0 22
-6 24 -13 3 -8 -2 -10 -14 -6 -14 5 -15 4 -3 -4 8 -6 17 -9 22 -6 9 6 48 -18
48 -29 0 -5 -7 -6 -16 -3 -9 3 -12 2 -9 -5 4 -6 13 -8 21 -5 7 3 27 -7 44 -22
34 -30 39 -44 13 -36 -15 5 -15 4 -3 -4 8 -6 18 -8 22 -6 10 6 68 -27 68 -39
0 -5 -7 -6 -16 -3 -8 3 -12 2 -9 -3 3 -6 13 -9 23 -8 20 1 72 -31 72 -45 0 -6
-11 -3 -25 6 -13 9 -28 16 -32 16 -4 0 5 -9 21 -19 17 -11 33 -18 38 -15 11 7
78 -34 78 -47 0 -6 -8 -5 -20 1 -11 6 -20 9 -20 6 0 -4 173 -117 200 -130 8
-4 6 0 -4 8 -33 27 5 19 46 -9 20 -14 42 -25 48 -25 7 0 24 -8 38 -18 15 -10
55 -31 89 -47 43 -20 59 -32 50 -38 -7 -5 -3 -6 10 -2 13 3 38 -1 57 -10 19
-9 75 -32 123 -50 48 -19 87 -38 86 -43 -1 -6 5 -8 15 -6 23 6 128 -31 125
-45 -2 -5 4 -8 11 -5 8 3 122 -31 253 -76 450 -155 828 -275 1088 -345 54 -14
213 -48 310 -65 273 -49 1032 -51 1605 -5 137 11 202 15 439 30 264 17 305 20
516 35 219 17 632 66 785 95 41 8 113 21 160 29 475 83 592 113 1160 296 421
136 436 141 456 134 14 -4 16 -3 5 4 -10 7 -4 13 25 22 22 7 63 24 92 37 30
14 62 22 75 19 12 -3 16 -3 8 0 -20 9 126 77 166 78 18 0 28 3 22 7 -7 4 -4 9
6 13 26 10 42 7 25 -5 -13 -9 -13 -10 0 -6 8 2 15 9 15 16 0 7 27 24 60 37 33
13 72 31 87 39 30 17 64 22 38 5 -8 -5 -10 -10 -5 -10 6 1 19 7 29 15 13 10
15 15 6 15 -24 0 157 111 189 115 33 4 87 35 61 35 -17 0 77 66 114 80 13 5
77 43 142 85 65 43 128 78 140 80 21 2 77 35 59 35 -6 0 -19 -7 -29 -15 -22
-16 -36 -19 -36 -7 0 10 71 48 83 44 4 -1 18 5 30 14 15 12 17 15 5 11 -10 -4
-18 -2 -18 3 0 12 35 31 43 24 3 -3 14 -1 24 6 16 10 16 10 -4 5 -14 -4 -23
-2 -23 4 0 6 4 11 9 11 6 0 25 14 43 30 18 17 39 28 46 25 8 -3 10 0 6 6 -8
13 54 72 67 64 5 -4 17 -1 26 5 16 9 15 10 -4 5 -14 -4 -23 -2 -23 4 0 12 1
12 38 16 12 1 26 6 30 10 4 5 -1 5 -10 2 -10 -4 -18 -2 -18 3 0 13 32 28 50
23 13 -4 13 -3 0 6 -13 9 -13 12 -1 20 8 5 21 7 30 4 13 -4 13 -3 2 5 -11 8
-10 14 7 32 11 12 24 20 29 17 5 -3 15 -1 23 5 12 8 12 9 -2 4 -26 -8 -22 7
10 42 15 16 34 40 42 52 24 36 40 49 53 46 7 -1 9 -1 5 1 -12 7 -10 23 5 38
29 33 37 45 37 55 0 5 4 10 10 10 5 0 12 11 16 25 3 14 10 25 14 25 5 0 12 10
16 22 3 12 13 28 20 36 8 7 14 20 14 28 0 8 4 14 9 14 5 0 13 10 17 22 3 12
13 28 20 36 8 7 14 20 14 28 0 8 5 14 10 14 6 0 10 7 10 15 0 8 4 15 9 15 5 0
12 13 16 30 4 16 10 30 15 30 5 0 11 14 15 30 4 17 10 30 15 30 5 0 11 13 15
30 4 16 10 30 15 30 4 0 11 16 14 35 4 19 11 35 16 35 6 0 10 9 10 20 0 11 4
20 9 20 5 0 12 18 16 40 4 22 10 40 15 40 5 0 11 18 15 40 4 22 10 40 15 40 4
0 11 26 15 58 4 31 11 59 16 62 4 3 11 33 15 65 4 33 11 62 15 65 4 3 11 58
15 123 4 64 11 117 15 117 5 0 9 151 9 335 0 184 -4 335 -9 335 -5 0 -12 50
-16 110 -3 60 -10 110 -15 110 -4 0 -11 25 -15 55 -3 30 -10 55 -15 55 -4 0
-11 25 -15 55 -3 30 -10 55 -15 55 -4 0 -11 20 -14 45 -4 25 -11 45 -16 45 -5
0 -12 20 -16 45 -3 25 -10 45 -15 45 -5 0 -9 9 -9 20 0 11 -4 20 -10 20 -5 0
-12 16 -16 35 -3 19 -10 35 -15 35 -4 0 -11 16 -15 35 -3 19 -10 35 -14 35 -5
0 -11 14 -15 30 -4 16 -10 30 -15 30 -5 0 -11 14 -15 30 -4 16 -11 30 -16 30
-5 0 -9 7 -9 15 0 8 -4 15 -10 15 -5 0 -12 11 -16 25 -3 14 -10 25 -14 25 -5
0 -12 10 -16 22 -3 12 -12 28 -18 35 -28 32 -36 43 -36 51 0 5 -9 20 -21 33
-11 13 -18 31 -16 40 3 11 0 16 -7 13 -6 -2 -18 5 -26 17 -8 11 -23 30 -33 42
-12 14 -16 30 -12 47 4 19 3 21 -5 10 -9 -13 -11 -13 -20 0 -20 32 -35 53 -47
66 -7 7 -13 15 -13 19 0 3 -5 11 -10 18 -23 27 -46 56 -60 77 -8 12 -22 30
-30 40 -8 10 -22 28 -30 40 -8 13 -21 28 -28 34 -43 37 -73 79 -67 93 3 8 0
11 -6 7 -6 -3 -20 4 -31 16 -17 18 -18 24 -7 32 11 8 10 9 -3 4 -21 -6 -51 21
-44 41 3 8 2 12 -3 8 -12 -7 -41 5 -41 17 0 5 10 7 23 3 19 -5 20 -4 4 5 -9 6
-21 9 -26 6 -8 -6 -121 98 -121 110 0 4 8 3 17 0 10 -4 14 -3 9 1 -4 4 -17 8
-29 8 -11 0 -22 6 -24 13 -3 8 2 10 14 6 14 -5 15 -4 4 4 -8 6 -19 8 -25 6 -6
-2 -26 9 -44 25 -35 32 -41 47 -16 37 9 -3 12 -2 9 5 -4 6 -13 8 -19 6 -7 -3
-19 -1 -27 4 -12 8 -12 10 1 19 13 9 13 10 0 11 -8 1 -19 2 -25 4 -5 1 -16 3
-22 3 -7 1 -13 7 -13 13 0 6 9 8 23 4 20 -6 21 -5 3 6 -11 7 -28 12 -39 13
-11 1 -22 7 -25 14 -2 8 3 10 15 6 14 -5 13 -3 -4 10 -12 9 -26 16 -30 15 -18
-3 -29 2 -58 27 -16 14 -42 33 -57 42 -28 16 -37 32 -19 32 6 0 13 -4 16 -10
3 -5 11 -10 18 -10 6 0 3 6 -8 14 -11 7 -27 13 -35 13 -8 0 -141 81 -296 181
-154 100 -289 184 -300 189 -10 4 -49 26 -85 49 -70 46 -136 83 -212 121 -26
13 -45 28 -42 33 3 5 -4 14 -16 20 -15 8 -19 9 -15 1 11 -17 -4 -13 -59 13
-27 14 -50 30 -50 37 0 7 -7 14 -15 16 -13 4 -13 3 0 -6 13 -10 13 -11 0 -11
-21 0 -45 17 -45 31 0 7 -7 14 -15 16 -13 4 -13 3 0 -6 21 -15 -2 -14 -35 1
-18 8 -22 14 -13 19 8 5 1 8 -17 6 -19 -1 -29 2 -28 10 2 7 -3 10 -10 7 -18
-7 -87 24 -84 37 1 6 -5 14 -13 16 -13 4 -13 3 0 -7 12 -9 10 -10 -10 -8 -14
2 -24 9 -22 16 1 8 -2 11 -8 7 -6 -3 -20 -3 -31 0 -17 6 -19 9 -8 17 10 7 8 8
-7 3 -25 -7 -120 29 -117 44 2 6 -3 8 -11 5 -12 -5 -122 35 -211 76 -22 10
-66 30 -98 44 -31 14 -56 31 -55 37 2 6 -4 14 -12 16 -13 4 -13 3 0 -6 25 -17
-4 -13 -55 9 -30 13 -44 24 -39 31 4 8 3 9 -5 5 -6 -4 -21 -4 -32 -1 -17 6
-19 9 -8 16 9 6 4 8 -16 6 -18 -1 -29 3 -28 9 1 7 -6 10 -16 7 -10 -3 -38 4
-62 15 -75 34 -183 70 -349 117 -87 25 -248 74 -357 109 -109 35 -226 72 -260
81 -35 10 -60 21 -58 25 3 5 -3 6 -14 3 -17 -4 -203 37 -391 87 -79 21 -137
34 -440 101 -431 94 -653 132 -950 164 -184 19 -624 19 -722 -1z m647 -118
c156 -18 324 -41 400 -56 110 -22 445 -93 525 -111 47 -11 121 -29 165 -39
471 -111 786 -195 1050 -280 99 -32 243 -77 320 -100 167 -49 317 -102 403
-141 34 -16 65 -29 67 -29 3 0 48 -20 99 -45 52 -25 97 -45 100 -45 3 0 35
-13 71 -30 36 -16 68 -30 70 -30 3 0 24 -9 48 -20 23 -10 78 -33 122 -50 44
-17 95 -38 112 -46 18 -8 50 -21 72 -28 53 -19 124 -53 346 -163 261 -129 280
-140 529 -301 121 -78 223 -142 228 -142 10 0 122 -72 126 -82 2 -3 32 -25 68
-48 35 -23 64 -46 64 -51 0 -4 8 -10 18 -13 10 -4 34 -20 53 -36 19 -17 53
-47 77 -68 24 -20 64 -55 89 -77 61 -54 310 -305 348 -350 17 -20 42 -49 58
-65 15 -15 27 -30 27 -34 0 -4 6 -13 13 -20 6 -8 19 -24 27 -36 8 -12 22 -30
30 -40 8 -10 22 -28 30 -40 8 -12 21 -28 28 -36 6 -7 12 -15 12 -19 0 -3 5
-11 10 -18 39 -46 50 -61 50 -69 0 -5 6 -15 13 -22 6 -8 19 -24 27 -36 8 -12
21 -28 28 -36 6 -7 12 -17 12 -23 0 -5 11 -21 24 -34 13 -13 27 -33 30 -45 4
-12 12 -22 17 -22 5 0 9 -6 9 -14 0 -8 6 -21 14 -28 7 -8 17 -24 20 -36 4 -12
11 -22 16 -22 5 0 11 -14 15 -30 4 -16 11 -30 16 -30 5 0 9 -7 9 -15 0 -8 4
-15 9 -15 5 0 12 -14 16 -30 4 -16 10 -30 15 -30 4 0 11 -18 15 -40 4 -22 10
-40 15 -40 4 0 11 -16 14 -35 4 -19 11 -35 15 -35 5 0 12 -20 15 -45 4 -25 11
-45 16 -45 5 0 12 -20 16 -45 3 -25 10 -45 15 -45 5 0 9 -13 9 -30 0 -16 4
-30 9 -30 5 0 12 -24 16 -52 4 -29 11 -55 16 -58 4 -3 11 -41 15 -85 4 -44 10
-82 15 -85 4 -3 11 -74 15 -158 4 -83 11 -152 15 -152 5 0 9 -43 9 -95 0 -52
-4 -95 -9 -95 -5 0 -12 -65 -16 -145 -4 -80 -11 -145 -15 -145 -4 0 -11 -46
-15 -102 -4 -57 -11 -105 -15 -108 -4 -3 -11 -30 -15 -60 -4 -30 -11 -57 -16
-58 -5 -2 -9 -17 -9 -33 0 -16 -4 -29 -9 -29 -5 0 -12 -20 -15 -45 -4 -25 -11
-45 -16 -45 -4 0 -11 -18 -15 -40 -4 -22 -11 -40 -15 -40 -5 0 -12 -16 -16
-35 -3 -19 -10 -35 -14 -35 -5 0 -11 -14 -15 -30 -4 -17 -11 -30 -15 -30 -5 0
-12 -16 -16 -35 -3 -19 -10 -35 -15 -35 -5 0 -9 -7 -9 -15 0 -8 -4 -15 -10
-15 -5 0 -12 -11 -16 -25 -3 -14 -10 -25 -14 -25 -5 0 -11 -14 -15 -30 -4 -17
-11 -30 -16 -30 -5 0 -9 -6 -9 -14 0 -8 -6 -21 -14 -28 -7 -8 -17 -24 -20 -36
-4 -12 -12 -22 -17 -22 -5 0 -9 -7 -9 -15 0 -8 -4 -15 -9 -15 -5 0 -13 -10
-17 -22 -3 -12 -13 -28 -20 -36 -8 -7 -14 -20 -14 -28 0 -8 -4 -14 -9 -14 -5
0 -13 -10 -17 -22 -3 -12 -12 -27 -18 -34 -6 -6 -18 -22 -26 -34 -8 -12 -26
-35 -40 -51 -14 -16 -38 -45 -55 -65 -45 -53 -217 -218 -286 -274 -17 -14 -52
-44 -77 -67 -25 -24 -49 -43 -54 -43 -4 0 -17 -9 -28 -20 -24 -24 -277 -190
-290 -190 -5 0 -73 -42 -152 -93 -118 -77 -319 -187 -342 -187 -3 0 -35 -13
-71 -30 -36 -16 -68 -30 -70 -30 -2 0 -28 -11 -57 -23 -29 -13 -80 -34 -113
-47 -33 -13 -64 -26 -70 -30 -5 -4 -66 -24 -135 -45 -206 -62 -403 -126 -437
-141 -17 -8 -38 -14 -45 -14 -8 0 -41 -9 -74 -20 -57 -20 -248 -78 -349 -106
-99 -27 -374 -84 -575 -119 -113 -19 -230 -40 -260 -45 -184 -34 -617 -76
-1135 -110 -170 -11 -335 -23 -365 -25 -77 -6 -511 -33 -677 -42 -346 -19
-795 -2 -1018 38 -281 50 -768 198 -1495 452 -102 36 -201 71 -220 78 -19 6
-39 16 -45 20 -5 5 -15 9 -23 9 -7 0 -32 8 -55 18 -23 11 -68 29 -99 41 -65
26 -219 103 -257 130 -14 9 -41 23 -58 30 -18 7 -45 25 -60 39 -15 14 -51 40
-81 59 -30 19 -62 42 -71 51 -25 23 -72 62 -110 92 -18 13 -59 48 -90 77 -71
67 -61 57 -134 135 -103 111 -141 154 -157 178 -8 12 -23 31 -33 42 -9 12 -17
25 -17 30 0 10 -5 16 -50 67 -16 18 -30 39 -30 47 0 8 -4 14 -10 14 -5 0 -10
6 -10 13 0 8 -9 24 -20 37 -11 13 -20 29 -20 37 0 7 -4 13 -9 13 -5 0 -12 11
-15 25 -4 14 -11 25 -16 25 -6 0 -10 7 -10 15 0 8 -4 15 -9 15 -5 0 -12 16
-15 35 -4 19 -11 35 -16 35 -4 0 -11 14 -15 30 -4 17 -10 30 -15 30 -4 0 -11
18 -15 40 -4 22 -10 40 -15 40 -4 0 -11 16 -14 35 -4 19 -11 35 -15 35 -5 0
-12 27 -16 60 -4 33 -11 60 -16 60 -5 0 -9 9 -9 20 0 11 -6 20 -12 20 -9 0 -8
4 2 10 9 6 10 10 3 10 -7 0 -14 26 -18 65 -4 36 -11 65 -15 65 -4 0 -11 33
-15 72 -3 40 -12 76 -18 80 -8 5 -7 8 3 8 11 0 11 3 3 8 -6 4 -15 47 -19 97
-4 50 -12 93 -18 97 -16 10 -15 776 0 786 6 4 14 56 18 117 5 65 12 113 19
117 8 5 7 8 -3 8 -10 0 -11 3 -3 8 6 4 14 49 19 105 4 53 10 97 14 97 4 0 11
41 14 90 5 58 12 90 19 90 7 0 6 5 -3 11 -11 8 -12 12 -2 16 7 2 12 22 12 44
0 21 4 39 9 39 4 0 12 36 15 80 4 44 11 80 16 80 4 0 11 25 15 55 3 30 10 55
15 55 4 0 11 23 15 50 4 28 10 50 15 50 4 0 11 20 14 45 4 25 11 45 15 45 5 0
12 20 15 45 4 25 11 45 17 45 5 0 9 14 9 30 0 17 4 30 9 30 5 0 13 25 16 55 4
30 11 55 15 55 5 0 12 25 15 55 4 30 11 55 15 55 4 0 11 20 14 45 4 25 11 45
15 45 5 0 12 20 15 45 4 25 11 45 17 45 5 0 9 9 9 20 0 11 4 20 9 20 5 0 12
18 16 40 4 22 10 40 15 40 4 0 11 23 15 50 4 28 11 50 15 50 5 0 12 25 15 55
4 30 11 55 15 55 5 0 12 25 15 55 4 30 11 55 15 55 5 0 11 18 15 40 4 22 11
40 16 40 5 0 9 7 9 15 0 8 4 15 9 15 5 0 12 14 16 30 4 17 10 30 15 30 5 0 12
10 16 22 7 23 10 26 61 86 40 45 35 40 110 110 91 85 182 126 366 167 301 67
473 72 591 16 36 -17 66 -35 66 -39 0 -5 10 -13 23 -19 25 -12 63 -43 152
-128 35 -33 84 -78 110 -100 25 -22 77 -69 115 -105 38 -36 83 -76 101 -90 17
-14 53 -46 79 -71 26 -26 61 -55 79 -65 17 -10 31 -21 31 -25 0 -4 22 -21 50
-39 27 -18 50 -35 50 -39 0 -3 23 -19 50 -36 28 -16 50 -32 50 -36 0 -4 27
-24 60 -44 33 -20 60 -39 60 -43 0 -4 28 -25 63 -47 34 -22 67 -45 72 -51 6
-7 44 -34 85 -60 41 -26 80 -53 85 -59 6 -7 26 -22 45 -35 19 -13 40 -28 45
-34 6 -6 29 -23 52 -38 22 -15 60 -45 84 -68 23 -22 45 -40 49 -40 4 0 26 -17
48 -37 22 -21 51 -47 64 -58 35 -30 192 -132 240 -156 163 -82 297 -145 328
-154 14 -4 30 -11 35 -15 6 -5 37 -16 70 -25 33 -10 65 -21 70 -24 6 -4 33
-16 60 -26 28 -10 82 -32 120 -50 65 -30 87 -40 180 -80 19 -8 50 -21 68 -29
17 -8 95 -33 172 -56 77 -23 177 -53 223 -67 55 -17 94 -24 118 -20 29 5 40 1
70 -26 42 -39 176 -164 187 -174 18 -19 194 -212 242 -268 20 -22 40 -44 45
-50 25 -24 31 -31 48 -52 9 -11 24 -31 32 -43 8 -12 22 -30 30 -40 8 -10 22
-28 30 -40 8 -13 25 -33 38 -46 12 -13 22 -27 22 -32 0 -8 8 -19 49 -68 5 -6
12 -20 15 -32 4 -12 12 -22 17 -22 5 0 9 -6 9 -14 0 -8 6 -21 14 -28 7 -8 17
-24 20 -36 4 -12 12 -22 17 -22 5 0 9 -7 9 -15 0 -8 4 -15 10 -15 5 0 12 -11
16 -25 3 -14 10 -25 14 -25 5 0 11 -14 15 -30 4 -17 10 -30 15 -30 5 0 11 -14
15 -30 4 -17 10 -30 15 -30 5 0 11 -14 15 -30 4 -17 10 -30 15 -30 5 0 11 -8
13 -17 3 -10 5 81 5 202 0 121 -2 212 -5 203 -2 -10 -8 -18 -13 -18 -5 0 -12
-10 -16 -22 -8 -26 -34 -55 -34 -38 0 10 -8 21 -37 55 -7 7 -13 18 -13 24 0 5
-11 21 -25 35 -14 14 -25 29 -25 34 0 8 -11 23 -50 69 -5 7 -10 16 -10 21 0 5
-8 18 -17 30 -10 11 -25 30 -33 42 -8 13 -33 42 -55 66 -22 24 -53 60 -70 79
-120 142 -434 450 -535 525 -18 14 -40 32 -49 41 -9 9 -38 31 -66 49 -59 40
-188 171 -235 240 -8 12 -23 31 -32 42 -10 12 -18 25 -18 30 0 5 -6 15 -12 22
-7 8 -20 24 -28 36 -8 12 -27 36 -42 52 -16 17 -28 34 -28 40 0 5 -6 15 -12
22 -7 8 -20 24 -28 36 -8 12 -23 31 -32 42 -10 12 -18 25 -18 30 0 8 -9 20
-37 53 -7 7 -13 16 -13 20 0 5 -9 18 -36 48 -6 7 -15 23 -18 35 -4 12 -11 22
-16 22 -4 0 -11 11 -14 25 -4 14 -10 25 -15 25 -5 0 -12 14 -16 30 -4 17 -11
30 -16 30 -5 0 -9 7 -9 15 0 8 -4 15 -10 15 -5 0 -12 16 -16 35 -3 19 -10 35
-15 35 -4 0 -11 16 -15 35 -3 19 -10 35 -15 35 -4 0 -11 16 -15 35 -3 19 -10
35 -14 35 -5 0 -11 23 -15 50 -4 28 -10 50 -15 50 -4 0 -11 25 -15 55 -3 30
-11 55 -16 55 -5 0 -9 16 -9 35 0 19 -4 35 -9 35 -5 0 -13 36 -17 80 -3 44
-10 80 -14 80 -5 0 -11 34 -15 75 -4 41 -11 75 -15 75 -4 0 -10 23 -14 50 -4
28 -11 50 -15 50 -5 0 -12 18 -16 40 -4 22 -11 40 -16 40 -5 0 -9 7 -9 15 0 8
-4 15 -9 15 -5 0 -12 14 -16 30 -4 17 -10 30 -15 30 -4 0 -11 11 -14 25 -4 14
-11 25 -16 25 -6 0 -10 6 -10 13 0 8 -9 24 -20 37 -11 13 -20 27 -20 32 0 10
-8 20 -65 82 -22 24 -47 53 -55 65 -8 13 -22 31 -30 41 -8 10 -22 28 -30 40
-8 12 -27 36 -43 54 -43 49 -47 55 -47 64 0 8 -11 23 -50 69 -5 7 -10 17 -10
23 0 6 -7 13 -15 16 -8 4 -15 10 -15 15 0 6 -5 15 -10 22 -39 46 -50 61 -50
69 0 5 -6 15 -12 22 -7 8 -20 24 -28 36 -8 12 -20 28 -26 34 -6 7 -15 22 -18
34 -4 12 -12 22 -17 22 -5 0 -9 9 -9 19 0 11 -6 21 -12 23 -9 3 -13 45 -13
154 0 146 1 150 25 176 14 14 32 36 40 48 26 41 96 107 130 125 18 9 54 21 79
25 70 12 428 3 586 -14z"/>
<path d="M4624 7349 c-9 -15 6 -243 17 -249 5 -3 11 -38 15 -78 4 -40 10 -72
14 -72 5 0 11 -36 15 -80 4 -44 11 -80 15 -80 4 0 11 -31 14 -70 4 -38 11 -70
17 -70 5 0 9 -11 9 -25 0 -14 4 -25 9 -25 5 0 12 -22 16 -50 4 -27 10 -50 15
-50 4 0 11 -16 14 -35 4 -19 11 -35 15 -35 5 0 12 -16 15 -35 4 -19 11 -35 16
-35 4 0 11 -13 15 -30 4 -16 11 -30 16 -30 5 0 9 -9 9 -20 0 -11 4 -20 10 -20
5 0 12 -11 16 -25 3 -14 10 -25 14 -25 5 0 11 -13 15 -30 4 -16 10 -30 15 -30
4 0 11 -11 14 -25 4 -14 10 -25 15 -25 5 0 12 -13 16 -30 4 -16 10 -30 15 -30
4 0 11 -11 14 -25 4 -14 11 -25 16 -25 6 0 10 -7 10 -15 0 -8 4 -15 10 -15 5
0 12 -11 16 -25 3 -14 10 -25 14 -25 5 0 11 -13 15 -30 4 -16 11 -30 16 -30 5
0 11 -11 15 -25 3 -14 10 -25 14 -25 5 0 11 -13 15 -30 4 -16 10 -30 15 -30 5
0 11 -13 15 -30 4 -16 11 -30 16 -30 5 0 9 -7 9 -15 0 -8 4 -15 9 -15 5 0 12
-13 16 -30 4 -16 10 -30 15 -30 5 0 11 -13 15 -30 4 -16 10 -30 15 -30 5 0 11
-13 15 -30 4 -16 10 -30 15 -30 5 0 11 -13 15 -30 4 -16 11 -30 16 -30 5 0 9
-7 9 -15 0 -8 4 -15 9 -15 5 0 12 -13 16 -30 4 -16 11 -30 15 -30 5 0 12 -16
16 -35 3 -19 10 -35 14 -35 5 0 11 -13 15 -30 4 -16 10 -30 15 -30 5 0 11 -13
15 -30 4 -16 10 -30 15 -30 4 0 11 -12 15 -27 7 -30 40 -63 62 -63 21 0 51 32
36 37 -7 3 -15 20 -19 39 -3 19 -10 34 -15 34 -4 0 -11 16 -15 35 -3 19 -10
35 -15 35 -5 0 -9 7 -9 15 0 8 -4 15 -9 15 -5 0 -12 16 -15 35 -4 19 -11 35
-15 35 -5 0 -12 16 -15 35 -4 19 -11 35 -16 35 -5 0 -12 16 -16 35 -3 19 -10
35 -14 35 -4 0 -11 12 -14 26 -4 15 -14 33 -21 41 -8 8 -15 23 -15 34 0 10 -4
19 -10 19 -5 0 -10 7 -10 15 0 8 -4 15 -9 15 -5 0 -12 14 -16 30 -4 17 -10 30
-15 30 -5 0 -11 14 -15 30 -4 17 -11 30 -16 30 -5 0 -11 11 -15 25 -3 14 -10
25 -14 25 -4 0 -11 11 -14 25 -4 14 -11 25 -16 25 -6 0 -10 7 -10 15 0 8 -4
15 -9 15 -5 0 -12 14 -16 30 -4 17 -11 30 -16 30 -5 0 -11 11 -15 25 -3 14
-10 25 -14 25 -5 0 -12 10 -16 22 -3 12 -13 28 -20 36 -8 7 -14 20 -14 28 0 8
-4 14 -9 14 -5 0 -12 11 -15 25 -4 14 -11 25 -16 25 -6 0 -10 7 -10 15 0 8 -4
15 -10 15 -5 0 -12 11 -16 25 -3 14 -10 25 -14 25 -4 0 -11 11 -14 25 -4 14
-10 25 -15 25 -5 0 -12 14 -16 30 -4 17 -10 30 -15 30 -5 0 -11 14 -15 30 -4
17 -10 30 -15 30 -5 0 -11 14 -15 30 -4 17 -11 30 -16 30 -5 0 -9 9 -9 20 0
11 -4 20 -9 20 -5 0 -12 16 -15 35 -4 19 -11 35 -16 35 -4 0 -11 23 -15 50 -4
28 -10 50 -15 50 -4 0 -11 25 -15 55 -3 30 -10 55 -15 55 -4 0 -11 32 -15 70
-4 39 -11 70 -16 70 -5 0 -9 18 -9 39 0 22 -4 41 -9 43 -5 2 -13 35 -16 73 -4
39 -11 72 -15 75 -4 3 -11 55 -15 115 -4 64 -12 113 -19 117 -16 11 -34 10
-42 -3z"/>
<path d="M6657 6893 c3 -49 9 -90 13 -93 4 -3 10 -63 14 -135 4 -77 12 -132
18 -136 8 -5 12 -159 12 -534 1 -457 -1 -527 -14 -535 -10 -7 -11 -10 -2 -10
14 0 17 -27 3 -32 -5 -1 -11 -34 -13 -73 -2 -57 0 -70 12 -70 10 0 16 12 18
35 2 19 8 37 13 40 5 4 12 79 15 168 5 106 11 162 18 162 8 0 8 3 0 8 -8 5
-13 144 -16 475 -3 306 -8 471 -15 475 -5 4 -13 63 -17 132 -4 79 -11 127 -19
132 -9 6 -8 10 3 18 10 6 11 10 3 10 -7 0 -13 11 -13 25 0 18 -5 25 -20 25
-18 0 -19 -5 -13 -87z"/>
<path d="M6903 6603 c-15 -5 -17 -33 -3 -33 13 0 14 -607 1 -612 -5 -1 -10
-50 -12 -108 -3 -88 -2 -105 11 -105 11 0 16 13 18 48 2 26 7 47 13 47 5 0 9
148 9 379 0 388 -1 396 -37 384z"/>
<path d="M8513 6113 c-6 -5 -14 -25 -18 -46 -4 -20 -11 -37 -15 -37 -5 0 -11
-13 -15 -30 -4 -16 -10 -30 -15 -30 -5 0 -11 -13 -15 -30 -4 -16 -10 -30 -15
-30 -5 0 -11 -13 -15 -30 -4 -16 -10 -30 -15 -30 -5 0 -11 -13 -15 -30 -4 -16
-11 -30 -16 -30 -5 0 -9 -7 -9 -15 0 -8 -4 -15 -10 -15 -5 0 -12 -16 -16 -35
-3 -19 -10 -35 -15 -35 -5 0 -9 -13 -9 -29 0 -21 6 -30 22 -34 29 -8 58 9 58
33 0 11 4 20 9 20 5 0 12 14 16 30 4 17 10 30 15 30 4 0 11 16 14 35 4 19 11
35 15 35 5 0 12 11 15 25 4 14 10 25 15 25 5 0 12 14 16 30 4 17 11 30 16 30
5 0 9 9 9 20 0 11 4 20 9 20 5 0 13 15 16 33 4 17 11 34 16 37 4 3 9 23 11 45
3 36 1 40 -22 43 -14 1 -30 -1 -37 -5z"/>
<path d="M8235 6010 c-4 -16 -11 -30 -16 -30 -5 0 -9 -7 -9 -15 0 -8 -4 -15
-10 -15 -5 0 -13 -12 -16 -27 -7 -26 -12 -35 -40 -66 -6 -7 -15 -23 -18 -35
-4 -12 -12 -22 -17 -22 -5 0 -9 -6 -9 -13 0 -8 -9 -25 -20 -38 -11 -13 -30
-37 -42 -52 -13 -15 -29 -34 -35 -42 -7 -7 -13 -18 -13 -23 0 -5 -8 -18 -17
-30 -10 -11 -25 -30 -33 -42 -8 -12 -26 -35 -40 -50 -14 -15 -32 -38 -40 -50
-8 -12 -22 -30 -30 -40 -23 -28 -43 -56 -60 -80 -8 -12 -26 -35 -40 -50 -14
-15 -32 -38 -40 -50 -8 -12 -22 -30 -30 -40 -8 -10 -22 -28 -30 -40 -8 -12
-23 -32 -32 -43 -10 -12 -28 -35 -40 -50 -13 -16 -35 -42 -50 -58 -16 -16 -28
-33 -28 -37 0 -9 -22 -39 -60 -82 -14 -15 -32 -38 -40 -50 -8 -12 -21 -28 -27
-36 -7 -7 -13 -17 -13 -23 0 -6 -13 -24 -29 -40 -35 -36 -49 -71 -28 -71 8 0
23 12 33 26 10 14 26 34 34 44 8 10 22 28 30 40 8 12 21 28 28 36 6 7 12 15
12 19 0 4 6 12 13 19 6 8 19 24 27 36 8 12 22 30 30 40 8 10 22 28 30 40 8 13
33 42 55 65 22 24 47 53 55 65 8 12 22 30 30 40 8 10 22 28 30 40 8 12 26 35
40 50 14 15 32 38 40 50 8 12 22 30 30 40 8 10 22 28 30 40 14 21 23 33 70 90
47 58 56 69 70 90 8 12 21 28 28 36 6 7 12 17 12 22 0 6 14 25 30 43 45 51 50
57 50 67 0 5 8 18 18 30 40 49 52 67 52 79 0 7 4 13 10 13 5 0 12 11 16 25 3
14 10 25 15 25 5 0 9 7 9 15 0 8 4 15 9 15 5 0 12 12 16 27 3 15 11 30 16 33
5 3 12 20 15 38 9 43 -21 45 -31 2z"/>
<path d="M1016 5888 c-54 -45 -108 -100 -126 -128 -8 -12 -20 -28 -26 -34 -6
-7 -15 -22 -18 -34 -4 -12 -11 -22 -16 -22 -5 0 -11 -13 -15 -30 -4 -16 -11
-30 -16 -30 -5 0 -9 -7 -9 -15 0 -8 -4 -15 -9 -15 -5 0 -12 -13 -16 -30 -4
-16 -11 -30 -15 -30 -5 0 -12 -16 -16 -35 -3 -19 -10 -35 -14 -35 -5 0 -11
-18 -15 -40 -4 -22 -10 -40 -15 -40 -5 0 -11 -18 -15 -40 -4 -22 -10 -40 -15
-40 -4 0 -11 -22 -15 -50 -4 -27 -11 -50 -16 -50 -5 0 -9 -11 -9 -25 0 -14 -4
-25 -9 -25 -5 0 -12 -24 -16 -52 -4 -29 -11 -55 -16 -58 -5 -3 -11 -33 -15
-65 -4 -33 -12 -63 -17 -67 -7 -4 -12 -85 -15 -207 -3 -111 -8 -201 -13 -201
-20 0 -7 -30 16 -36 46 -11 51 7 59 196 3 99 11 176 16 178 6 2 10 21 10 43 0
21 4 39 10 39 5 0 12 27 16 60 4 33 10 60 14 60 5 0 11 27 15 60 4 33 11 60
16 60 4 0 11 23 15 50 4 28 10 50 14 50 5 0 11 18 15 40 4 22 10 40 15 40 5 0
11 18 15 40 4 22 11 40 16 40 5 0 9 7 9 15 0 8 4 15 9 15 5 0 12 18 16 40 4
22 11 40 15 40 5 0 11 14 15 30 4 17 10 30 15 30 5 0 11 14 15 30 4 17 10 30
15 30 4 0 11 11 14 25 4 14 11 25 16 25 6 0 10 7 10 15 0 19 142 161 170 170
27 9 25 19 -5 33 -35 16 -36 16 -79 -20z"/>
<path d="M2424 5849 c3 -16 11 -36 18 -43 7 -8 20 -24 28 -36 8 -13 21 -28 27
-34 7 -6 47 -44 89 -83 42 -40 80 -73 84 -73 4 0 20 -12 36 -26 59 -52 70 -61
104 -84 19 -13 37 -27 40 -30 3 -3 21 -17 40 -30 19 -12 40 -28 45 -35 12 -14
422 -279 480 -311 22 -11 67 -36 100 -54 33 -18 65 -37 72 -42 10 -8 108 -59
308 -161 119 -60 366 -175 500 -232 17 -7 46 -20 65 -28 62 -27 90 -31 90 -13
0 9 -12 21 -27 27 -15 6 -44 17 -63 26 -19 8 -48 21 -65 28 -34 14 -118 53
-215 97 -158 74 -559 274 -595 298 -22 15 -53 33 -70 42 -82 41 -163 89 -343
205 -108 70 -204 134 -214 143 -9 10 -32 27 -52 39 -20 13 -36 26 -36 31 0 5
-8 11 -19 15 -10 3 -30 16 -44 29 -14 13 -40 34 -58 47 -19 13 -41 31 -51 39
-9 8 -31 26 -48 40 -38 29 -105 96 -140 140 -14 17 -30 37 -36 43 -6 7 -15 23
-18 35 -4 12 -14 22 -23 22 -12 0 -14 -7 -9 -31z"/>
<path d="M9664 5647 c-8 -9 -8 -16 0 -24 6 -5 18 -20 26 -33 8 -12 22 -30 30
-40 8 -10 22 -28 30 -40 8 -12 27 -36 41 -52 45 -51 49 -57 49 -66 0 -8 8 -19
49 -68 5 -6 12 -20 15 -32 4 -12 12 -22 17 -22 5 0 9 -7 9 -15 0 -8 4 -15 9
-15 5 0 13 -10 17 -22 3 -12 13 -28 20 -36 8 -7 14 -20 14 -28 0 -8 5 -14 10
-14 6 0 10 -6 10 -13 0 -8 9 -24 20 -37 11 -13 20 -31 20 -42 0 -10 4 -18 10
-18 5 0 12 -11 16 -25 3 -14 10 -25 15 -25 5 0 9 -7 9 -15 0 -8 4 -15 9 -15 5
0 12 -11 15 -25 4 -14 10 -25 15 -25 5 0 12 -13 16 -30 4 -16 10 -30 15 -30 5
0 11 -13 15 -30 4 -16 11 -30 15 -30 5 0 12 -16 16 -35 3 -19 10 -35 15 -35 5
0 9 -7 9 -15 0 -8 4 -15 10 -15 5 0 12 -16 16 -35 3 -19 10 -35 15 -35 4 0 11
-16 15 -35 3 -19 10 -35 15 -35 4 0 11 -16 15 -35 3 -19 10 -35 14 -35 5 0 11
-18 15 -40 4 -22 11 -40 15 -40 5 0 12 -16 16 -35 3 -19 10 -35 15 -35 5 0 9
-9 9 -20 0 -11 4 -20 9 -20 6 0 13 -20 16 -45 7 -45 30 -65 56 -49 13 8 5 104
-10 113 -4 3 -12 25 -16 49 -4 23 -10 42 -15 42 -5 0 -11 18 -15 40 -4 22 -11
40 -16 40 -5 0 -9 7 -9 15 0 8 -4 15 -9 15 -5 0 -12 18 -16 40 -4 22 -11 40
-15 40 -5 0 -12 16 -16 35 -3 19 -10 35 -14 35 -5 0 -11 14 -15 30 -4 17 -11
30 -15 30 -5 0 -12 16 -16 35 -3 19 -10 35 -14 35 -5 0 -11 14 -15 30 -4 17
-11 30 -16 30 -5 0 -9 7 -9 15 0 8 -4 15 -9 15 -5 0 -12 11 -15 25 -4 14 -10
25 -15 25 -5 0 -12 14 -16 30 -4 17 -10 30 -15 30 -5 0 -11 14 -15 30 -4 17
-10 30 -15 30 -4 0 -11 11 -14 25 -4 14 -11 25 -16 25 -6 0 -10 7 -10 15 0 8
-4 15 -9 15 -5 0 -13 10 -17 22 -3 12 -13 28 -20 36 -8 7 -14 20 -14 28 0 8
-4 14 -10 14 -5 0 -10 6 -10 14 0 8 -6 21 -14 28 -7 8 -17 24 -20 36 -4 12
-12 22 -17 22 -5 0 -9 6 -9 14 0 8 -14 29 -30 47 -45 51 -50 57 -50 67 0 5 -8
18 -17 30 -10 11 -25 30 -33 42 -17 25 -53 68 -92 111 -29 31 -56 37 -74 16z"/>
<path d="M8228 5573 c-9 -10 -22 -22 -28 -28 -11 -11 -100 -106 -190 -205 -30
-33 -80 -87 -110 -119 -30 -32 -62 -69 -70 -81 -8 -12 -28 -37 -45 -55 -16
-19 -41 -48 -55 -65 -14 -18 -33 -39 -42 -48 -10 -9 -18 -20 -18 -25 0 -5 -6
-14 -12 -21 -7 -8 -20 -24 -28 -36 -8 -12 -23 -31 -32 -42 -10 -12 -18 -25
-18 -30 0 -5 -10 -20 -22 -33 -33 -33 -58 -68 -58 -78 0 -5 -6 -14 -12 -21 -7
-8 -20 -24 -28 -36 -8 -12 -21 -28 -27 -36 -7 -7 -13 -15 -13 -19 0 -3 -5 -11
-10 -18 -39 -46 -50 -61 -50 -69 0 -5 -5 -14 -10 -21 -41 -48 -50 -62 -50 -74
0 -7 -4 -13 -9 -13 -5 0 -13 -10 -17 -22 -4 -13 -15 -30 -24 -38 -9 -8 -20
-25 -24 -37 -7 -22 -5 -23 53 -23 48 0 61 3 61 15 0 8 4 15 10 15 5 0 12 11
16 25 3 14 10 25 14 25 5 0 12 10 16 23 4 12 15 29 24 37 9 8 20 25 24 38 4
12 11 22 16 22 5 0 12 10 16 22 3 12 10 26 15 32 41 49 49 60 49 68 0 5 11 20
25 34 14 14 25 31 25 39 0 8 4 15 10 15 5 0 12 11 16 25 3 14 10 25 14 25 5 0
12 10 16 22 3 12 13 28 20 36 8 7 14 20 14 28 0 8 4 14 9 14 5 0 13 10 17 23
4 12 15 29 25 38 11 9 19 21 19 26 0 6 8 19 18 31 9 11 24 30 32 42 8 12 22
30 30 40 8 10 22 28 30 40 8 12 26 35 40 51 14 15 39 44 55 63 17 20 48 56 70
80 22 25 54 61 70 80 65 77 97 113 124 141 40 40 71 77 71 85 0 17 -45 11 -62
-7z"/>
<path d="M930 5365 c0 -8 -4 -15 -10 -15 -5 0 -12 -11 -16 -25 -3 -14 -10 -25
-14 -25 -4 0 -11 -12 -14 -26 -4 -15 -14 -33 -21 -41 -8 -8 -15 -23 -15 -34 0
-10 -4 -19 -10 -19 -5 0 -12 -16 -16 -35 -3 -19 -10 -35 -15 -35 -5 0 -9 -9
-9 -20 0 -11 -4 -20 -9 -20 -5 0 -12 -17 -16 -37 -4 -21 -11 -40 -15 -43 -5
-3 -10 -30 -12 -60 -2 -44 0 -55 12 -55 10 0 16 12 18 33 2 17 7 32 13 32 5 0
9 11 9 25 0 14 4 25 9 25 5 0 12 20 15 45 4 25 11 45 15 45 5 0 12 16 15 35 4
19 11 35 15 35 5 0 12 16 15 35 4 19 11 35 16 35 5 0 12 11 16 25 3 14 10 25
14 25 5 0 11 13 15 28 3 15 15 34 25 42 28 20 25 40 -5 40 -16 0 -25 -6 -25
-15z"/>
<path d="M9829 5179 c-9 -5 -10 -9 -2 -9 6 0 14 -13 18 -30 4 -16 11 -30 15
-30 5 0 12 -16 16 -35 3 -19 10 -35 14 -35 5 0 11 -13 15 -30 4 -16 11 -30 16
-30 5 0 9 -7 9 -15 0 -8 4 -15 9 -15 5 0 12 -16 15 -35 4 -19 11 -35 16 -35 4
0 11 -13 15 -30 4 -16 10 -30 15 -30 4 0 11 -16 14 -35 4 -19 11 -35 16 -35 4
0 12 -14 15 -32 4 -17 14 -38 21 -46 8 -7 14 -22 14 -33 0 -10 5 -19 10 -19 6
0 10 -7 10 -15 0 -8 4 -15 10 -15 5 0 12 -16 16 -35 3 -19 10 -35 14 -35 5 0
11 -13 15 -30 4 -16 10 -30 15 -30 5 0 11 -13 15 -30 4 -16 10 -30 15 -30 4 0
10 -14 14 -31 6 -32 27 -59 46 -59 14 0 4 53 -11 58 -5 2 -9 10 -9 18 0 8 -4
14 -9 14 -5 0 -12 16 -15 35 -4 19 -11 35 -16 35 -4 0 -11 14 -15 30 -4 17
-10 30 -15 30 -4 0 -11 16 -14 35 -4 19 -11 35 -16 35 -5 0 -12 16 -16 35 -3
19 -10 35 -15 35 -5 0 -9 7 -9 15 0 8 -4 15 -9 15 -5 0 -12 14 -16 30 -4 17
-10 30 -15 30 -4 0 -11 16 -14 35 -4 19 -11 35 -16 35 -4 0 -11 14 -15 30 -4
17 -10 30 -15 30 -4 0 -11 16 -14 35 -4 19 -11 35 -16 35 -4 0 -11 14 -15 30
-4 17 -11 30 -16 30 -5 0 -9 9 -9 20 0 11 -4 20 -9 20 -5 0 -12 14 -16 30 -4
17 -10 30 -15 30 -4 0 -10 13 -13 29 -7 31 -26 44 -48 30z"/>
<path d="M9676 5171 c-8 -12 3 -61 14 -61 4 0 11 -16 14 -35 4 -19 11 -35 15
-35 5 0 12 -16 15 -35 4 -19 11 -35 16 -35 4 0 11 -13 15 -30 4 -16 11 -30 16
-30 5 0 9 -9 9 -20 0 -11 4 -20 10 -20 5 0 12 -16 16 -35 3 -19 10 -35 14 -35
5 0 11 -13 15 -30 4 -16 11 -30 15 -30 5 0 12 -16 16 -35 3 -19 10 -35 14 -35
4 0 11 -16 14 -35 4 -19 11 -35 16 -35 6 0 10 -9 10 -20 0 -15 7 -20 25 -20
14 0 25 5 25 10 0 6 -4 10 -10 10 -5 0 -12 16 -16 35 -3 19 -10 35 -15 35 -5
0 -9 7 -9 15 0 8 -4 15 -9 15 -5 0 -12 18 -16 40 -4 22 -11 40 -15 40 -5 0
-11 14 -15 30 -4 17 -10 30 -15 30 -4 0 -11 16 -14 35 -4 19 -11 35 -15 35 -5
0 -12 16 -15 35 -4 19 -11 35 -16 35 -6 0 -10 7 -10 15 0 8 -4 15 -9 15 -5 0
-12 16 -15 35 -4 19 -11 35 -15 35 -5 0 -12 16 -15 35 -4 19 -11 35 -16 35 -5
0 -10 10 -12 22 -3 24 -23 35 -32 19z"/>
<path d="M3137 5133 c-6 -9 347 -243 395 -263 13 -5 43 -23 68 -39 25 -17 50
-31 55 -31 6 0 37 -18 70 -40 33 -22 64 -40 69 -40 5 0 30 -13 55 -29 25 -16
58 -33 74 -36 42 -11 35 19 -10 40 -21 10 -57 31 -80 46 -23 16 -47 29 -53 29
-6 0 -38 18 -70 40 -33 22 -70 44 -83 49 -13 5 -90 53 -171 105 -81 53 -152
96 -157 96 -13 0 -70 38 -85 57 -14 16 -70 28 -77 16z"/>
<path d="M5816 4752 c-7 -12 5 -52 15 -52 5 0 9 -7 9 -15 0 -8 4 -15 9 -15 5
0 12 -11 15 -25 4 -14 10 -25 15 -25 5 0 12 -13 16 -30 4 -16 10 -30 15 -30 5
0 11 -13 15 -30 4 -16 10 -30 15 -30 5 0 11 -13 15 -30 4 -16 11 -30 16 -30 5
0 9 -7 9 -15 0 -8 4 -15 10 -15 5 0 12 -16 16 -35 3 -19 10 -35 14 -35 5 0 11
-13 15 -30 4 -16 11 -30 16 -30 5 0 9 -9 9 -20 0 -14 7 -20 21 -20 19 0 21 4
16 37 -4 20 -10 39 -15 42 -5 3 -13 21 -17 39 -3 17 -11 32 -15 32 -5 0 -12
16 -16 35 -3 19 -10 35 -14 35 -5 0 -11 14 -15 30 -4 17 -11 30 -16 30 -5 0
-9 7 -9 15 0 8 -4 15 -10 15 -5 0 -12 11 -16 25 -3 14 -10 25 -14 25 -5 0 -11
14 -15 30 -4 17 -11 30 -16 30 -5 0 -9 6 -9 14 0 8 -6 21 -14 28 -7 8 -17 24
-20 36 -7 21 -40 30 -50 14z"/>
<path d="M1610 4591 c0 -11 16 -32 38 -48 20 -15 60 -50 87 -79 28 -28 60 -54
72 -58 12 -4 37 -26 57 -50 19 -24 49 -49 67 -56 28 -12 30 -15 15 -26 -9 -6
-25 -10 -35 -7 -10 3 -22 0 -25 -6 -4 -6 -25 -11 -48 -11 -47 0 -96 -21 -129
-56 -13 -14 -34 -24 -50 -24 -40 0 -79 -17 -79 -35 0 -9 -9 -15 -25 -15 -21 0
-57 -11 -115 -34 -8 -3 -28 -15 -45 -26 -16 -11 -42 -26 -56 -34 -27 -15 -224
-206 -271 -262 -14 -18 -30 -33 -35 -35 -5 -2 -23 -24 -40 -49 -17 -25 -43
-57 -57 -72 -14 -15 -26 -33 -26 -40 0 -7 -11 -33 -25 -57 -14 -23 -25 -50
-25 -58 0 -8 -13 -31 -29 -51 -30 -39 -34 -54 -53 -195 -8 -69 -8 -96 2 -127
8 -24 10 -49 4 -67 -11 -38 -14 -346 -4 -410 5 -28 21 -78 36 -110 14 -32 35
-78 46 -102 29 -68 71 -130 92 -137 10 -3 70 -56 131 -116 62 -60 137 -127
166 -149 29 -21 65 -52 80 -67 15 -16 52 -34 88 -45 33 -10 63 -22 66 -28 4
-5 14 -9 24 -9 10 0 58 -16 105 -35 l87 -35 720 0 c816 0 733 -8 862 86 46 34
68 58 84 93 l22 49 98 11 c54 6 127 13 163 16 131 9 256 23 315 34 33 7 86 16
119 22 32 5 72 16 90 23 l31 13 -25 7 c-14 4 -92 -5 -175 -19 -210 -37 -598
-75 -613 -60 -3 3 -5 38 -4 79 2 69 0 76 -33 124 -19 29 -35 56 -35 62 0 6 35
10 90 10 122 0 196 22 263 77 83 68 118 105 136 143 l16 35 90 6 c50 4 117 11
150 17 262 47 589 109 758 143 111 23 213 44 227 46 94 18 319 66 745 158 270
58 502 109 517 112 34 7 43 29 18 43 -13 7 -49 3 -132 -15 -670 -150 -1554
-333 -1953 -405 -27 -5 -122 -23 -210 -40 -225 -42 -205 -48 -205 60 0 88 -1
92 -37 143 -68 97 -85 117 -103 117 -10 0 -23 7 -31 16 -11 13 -7 21 27 53 21
20 56 47 77 60 20 12 37 30 37 39 0 9 7 26 15 36 11 15 15 48 15 128 0 119 -8
143 -68 208 -17 19 -32 38 -32 43 0 13 155 -2 255 -25 106 -24 358 -88 366
-93 5 -4 119 -36 194 -55 17 -4 93 -25 170 -45 170 -45 186 -49 502 -119 298
-65 493 -99 516 -90 30 11 18 33 -20 39 -52 9 -575 121 -648 139 -326 80 -512
128 -585 151 -46 14 -203 57 -300 81 -49 12 -250 56 -383 84 -27 5 -63 10 -80
10 l-32 1 25 22 c14 13 41 45 59 73 33 47 35 53 37 146 2 93 1 100 -28 143
-37 56 -74 93 -124 125 l-39 25 -484 3 -484 3 -23 24 c-13 14 -28 25 -35 25
-11 0 -58 19 -114 46 -36 17 -91 22 -303 29 -131 4 -157 8 -178 24 -13 10 -24
23 -24 27 0 5 -30 29 -68 54 -83 56 -94 64 -152 120 -101 97 -140 120 -140 81z
m742 -412 c120 -23 260 -118 322 -219 12 -19 32 -59 44 -89 22 -53 22 -56 22
-736 0 -613 -2 -683 -16 -689 -9 -3 -53 -6 -99 -6 -187 0 -340 93 -420 255
-18 37 -20 68 -25 413 -5 355 -6 374 -24 388 -48 35 -106 5 -106 -54 0 -48
-29 -151 -52 -184 -10 -14 -18 -30 -18 -36 0 -17 -91 -103 -151 -142 -86 -56
-188 -80 -335 -80 -141 0 -158 -4 -173 -36 -16 -37 4 -72 47 -80 54 -10 301 3
359 19 104 30 207 87 292 165 l26 24 5 -189 c5 -159 9 -196 26 -239 24 -59 68
-124 116 -173 30 -32 133 -104 161 -114 7 -2 -7 -23 -34 -49 -25 -24 -58 -69
-73 -98 -25 -47 -28 -65 -28 -140 0 -87 13 -129 69 -208 l15 -22 -176 0 c-219
0 -336 13 -474 51 -234 66 -440 201 -579 381 -74 96 -126 196 -164 318 -23 70
-24 90 -24 320 0 259 0 261 56 432 22 68 71 165 116 230 18 26 33 52 33 58 0
6 7 13 15 16 8 4 15 11 15 16 0 18 192 201 262 250 36 25 100 65 141 87 255
139 597 205 829 160z m1150 -120 c80 -16 145 -68 171 -138 20 -51 20 -55 3
-105 -23 -68 -43 -90 -111 -126 l-57 -30 -319 0 -319 0 0 84 c0 95 -21 173
-69 254 -17 29 -31 57 -31 62 0 14 662 13 732 -1z m29 -534 c55 -19 105 -59
144 -116 27 -38 30 -50 29 -118 0 -65 -4 -82 -27 -116 -33 -50 -76 -84 -136
-109 -41 -18 -76 -20 -334 -24 -159 -2 -299 -1 -313 2 l-24 6 0 245 0 245 308
0 c250 0 317 -3 353 -15z m33 -629 c108 -54 158 -147 140 -262 -9 -60 -66
-133 -130 -165 -48 -24 -53 -24 -376 -27 l-328 -3 0 239 c0 131 3 242 7 246 4
4 147 6 318 4 l310 -3 59 -29z m-427 -604 c63 -33 108 -85 128 -147 16 -52 16
-58 0 -110 -21 -65 -69 -119 -134 -149 -43 -20 -62 -21 -321 -21 -271 0 -276
0 -324 24 -110 54 -158 146 -133 253 9 40 23 62 60 99 75 74 102 79 417 76
253 -2 267 -3 307 -25z"/>
<path d="M7710 4419 c-55 -56 -100 -105 -100 -110 0 -5 -6 -9 -14 -9 -7 0 -29
-20 -47 -44 -19 -25 -43 -47 -54 -50 -11 -3 -43 -26 -71 -50 -28 -25 -53 -43
-56 -41 -3 3 -35 7 -72 10 -37 3 -71 7 -76 10 -35 22 -480 41 -529 23 -43 -16
-104 -91 -134 -166 -25 -64 -23 -175 5 -221 12 -20 28 -40 35 -44 7 -4 13 -13
13 -19 0 -14 42 -53 89 -83 25 -15 61 -25 107 -30 38 -4 96 -13 129 -21 33 -8
79 -14 101 -14 23 0 84 -9 135 -19 145 -30 405 -71 449 -71 21 0 42 -5 45 -10
15 -24 -18 -38 -103 -45 -48 -3 -98 -12 -112 -20 -16 -9 -58 -13 -116 -13 -50
0 -101 -5 -112 -11 -11 -6 -45 -11 -74 -11 -29 0 -86 -9 -127 -20 -41 -11 -96
-20 -123 -20 -63 0 -170 -29 -186 -51 -6 -10 -27 -22 -45 -28 -18 -6 -49 -30
-68 -54 l-36 -42 2 -125 c2 -130 8 -160 31 -160 7 0 19 -10 25 -22 7 -13 25
-39 40 -58 l28 -35 163 1 c135 1 173 5 223 22 36 12 125 27 220 36 88 9 185
22 215 30 30 8 90 19 134 23 75 9 78 8 86 -13 5 -12 4 -39 -1 -60 -33 -146 27
-268 167 -333 37 -17 75 -31 85 -31 34 0 32 -28 -6 -90 -35 -58 -37 -65 -31
-121 9 -76 39 -163 72 -206 54 -71 133 -102 281 -110 54 -3 86 -9 94 -19 6 -8
18 -14 25 -14 8 0 14 -7 14 -15 0 -8 9 -15 20 -15 11 0 29 -9 41 -21 22 -22
104 -66 129 -69 53 -8 53 13 0 36 -21 10 -36 22 -33 27 4 6 0 8 -10 4 -9 -3
-20 -1 -24 6 -5 7 -27 21 -50 32 -44 21 -62 52 -36 62 9 3 84 1 167 -5 179
-14 402 -8 463 13 24 8 55 15 69 15 33 0 205 58 225 76 8 8 19 14 23 14 14 0
151 100 196 144 51 50 123 150 135 187 5 13 25 51 45 84 21 33 48 85 61 115
12 30 29 64 36 75 7 11 13 29 13 42 0 12 5 25 10 28 6 3 10 14 10 23 0 9 7 29
15 45 24 47 29 180 10 302 -9 60 -22 117 -30 125 -8 8 -13 31 -13 50 1 19 -9
60 -21 90 -13 30 -27 70 -32 88 -6 17 -14 32 -19 32 -6 0 -24 25 -41 56 -18
30 -40 61 -50 67 -11 7 -19 16 -19 20 0 5 -34 46 -76 92 -50 55 -94 93 -132
113 -61 32 -220 96 -265 107 -15 4 -30 11 -33 16 -3 5 -15 9 -27 9 -13 0 -34
8 -47 18 -22 15 -67 18 -425 24 -238 3 -420 11 -450 17 -27 7 -107 16 -177 21
-70 5 -151 16 -180 25 -50 15 -152 28 -313 41 -112 9 -115 10 -102 39 7 13 29
34 49 47 20 13 41 33 47 46 6 12 15 22 21 22 5 0 10 5 10 10 0 13 6 20 95 115
116 124 135 147 129 156 -13 22 -41 3 -134 -92z m-650 -369 c131 -22 253 -40
272 -40 18 0 146 -18 283 -39 471 -74 768 -109 945 -111 l44 0 -24 -17 c-14
-9 -28 -22 -32 -28 -3 -6 -20 -25 -37 -43 -17 -17 -31 -36 -31 -41 0 -6 -11
-26 -24 -45 -13 -19 -33 -75 -45 -125 -18 -76 -21 -120 -21 -295 l0 -205 -222
-3 c-188 -3 -229 -6 -258 -20 -47 -24 -104 -59 -110 -68 -7 -9 -235 -50 -283
-50 -20 0 -129 -16 -243 -35 -113 -19 -220 -35 -237 -35 -18 0 -80 -7 -138
-17 l-106 -16 -49 24 c-26 13 -61 40 -77 60 -26 33 -29 45 -29 109 0 130 55
175 252 204 58 8 193 29 300 47 107 17 229 35 270 41 41 5 183 27 316 49 132
21 257 39 277 39 65 0 99 58 58 99 -18 18 -103 38 -206 47 -51 5 -381 55 -815
125 -135 22 -259 39 -277 39 -47 0 -83 17 -126 58 -69 67 -75 189 -14 259 32
36 96 72 130 73 10 0 126 -18 257 -40z m2147 -226 c43 -15 82 -30 88 -35 5 -5
19 -9 31 -9 13 0 29 -6 36 -14 8 -7 29 -22 47 -32 19 -11 42 -24 53 -30 34
-20 137 -123 189 -189 64 -82 109 -167 147 -280 43 -125 52 -180 52 -300 0
-154 -42 -319 -110 -435 -16 -28 -30 -54 -30 -59 0 -4 -16 -26 -35 -48 -19
-23 -35 -44 -35 -48 0 -10 -103 -115 -112 -115 -5 0 -16 -8 -26 -17 -37 -36
-72 -63 -81 -63 -5 0 -38 -17 -72 -38 -35 -22 -75 -42 -89 -45 -14 -3 -63 -18
-110 -32 -67 -21 -114 -28 -223 -32 l-138 -6 20 34 c25 44 51 133 51 178 0 62
-31 154 -69 200 l-35 44 24 16 c13 9 36 28 51 42 15 15 31 28 36 30 4 2 25 30
47 61 41 62 75 183 76 271 0 55 10 59 40 16 13 -17 32 -35 44 -40 11 -5 43
-23 70 -40 59 -37 125 -49 262 -49 108 0 124 6 124 50 0 48 -24 58 -150 62
-100 4 -123 8 -173 32 -122 58 -205 183 -220 328 -6 58 -20 78 -58 78 -22 0
-32 -6 -39 -26 -6 -14 -10 -129 -10 -255 0 -225 -1 -232 -26 -297 -28 -71 -79
-131 -144 -168 -42 -24 -138 -38 -173 -25 -46 18 -48 37 -45 512 l3 444 34 83
c55 134 184 251 301 273 25 4 102 6 172 3 101 -4 144 -10 205 -30z m-817
-1068 c0 -101 3 -191 6 -200 5 -14 -18 -16 -223 -16 -226 0 -229 0 -265 25
-45 31 -88 114 -88 171 0 53 12 87 51 135 47 60 83 67 317 68 l202 1 0 -184z
m253 -364 c53 -28 99 -103 105 -167 7 -87 -49 -175 -135 -212 -23 -9 -84 -13
-215 -13 -160 0 -188 3 -223 20 -61 29 -92 60 -109 110 -41 117 3 229 106 269
49 19 69 21 243 17 169 -3 194 -6 228 -24z"/>
<path d="M5190 3552 c0 -12 384 -132 393 -123 4 4 -80 35 -186 69 -207 66
-207 66 -207 54z"/>
<path d="M5050 3482 c0 -11 30 -26 113 -57 61 -23 114 -38 277 -82 92 -24 329
-73 355 -73 51 0 22 19 -52 36 -178 38 -431 106 -540 144 -115 40 -153 48
-153 32z"/>
<path d="M537 2983 c-4 -3 -7 -26 -7 -50 0 -23 -4 -43 -10 -43 -5 0 -10 -7
-10 -15 0 -8 4 -15 8 -15 5 0 12 -66 16 -147 4 -81 11 -150 15 -153 5 -3 12
-36 16 -75 4 -38 10 -72 15 -75 4 -3 11 -33 15 -67 4 -35 11 -63 16 -63 5 0 9
-11 9 -25 0 -14 4 -25 9 -25 6 0 13 -20 17 -45 3 -25 10 -45 14 -45 5 0 11
-18 15 -40 4 -22 11 -40 15 -40 5 0 12 -14 15 -32 4 -17 14 -38 21 -46 8 -7
14 -20 14 -28 0 -8 4 -14 9 -14 5 0 12 -13 16 -30 4 -16 10 -30 13 -30 4 0 12
-10 18 -23 38 -80 79 -150 90 -154 8 -3 14 -11 14 -18 0 -6 9 -23 20 -36 11
-13 30 -37 42 -52 48 -59 91 -107 148 -162 5 -5 42 -43 80 -82 63 -65 110 -92
110 -63 0 5 -51 61 -112 124 -123 124 -166 173 -223 252 -11 16 -32 42 -46 59
-14 16 -43 64 -65 105 -21 41 -45 81 -51 88 -7 7 -13 22 -13 33 0 10 -4 19
-10 19 -5 0 -10 6 -10 13 0 7 -9 29 -20 50 -11 20 -20 48 -20 62 0 14 -4 25
-9 25 -5 0 -12 18 -16 40 -4 22 -11 40 -15 40 -5 0 -12 25 -15 55 -4 30 -11
55 -15 55 -4 0 -11 27 -15 60 -4 33 -11 60 -16 60 -5 0 -9 18 -9 40 0 22 -4
40 -9 40 -5 0 -12 52 -16 115 -4 63 -11 115 -16 115 -5 0 -9 56 -9 125 0 98
-3 125 -13 125 -8 0 -17 -3 -20 -7z"/>
<path d="M6185 2829 c-66 -43 -123 -79 -127 -79 -11 0 -289 -179 -316 -204
-55 -50 -158 -155 -172 -176 -8 -12 -21 -28 -28 -34 -7 -6 -18 -17 -25 -24
-94 -99 -134 -132 -239 -200 -108 -69 -359 -202 -381 -202 -5 0 -41 -15 -80
-34 -108 -51 -136 -62 -217 -92 -41 -14 -98 -37 -127 -50 -28 -12 -161 -59
-294 -104 -212 -71 -299 -97 -424 -130 -215 -57 -293 -76 -425 -105 -221 -49
-352 -83 -363 -94 -16 -16 2 -31 38 -31 68 0 527 98 750 160 44 12 94 26 110
30 113 28 670 217 780 265 28 12 66 28 85 35 19 8 63 26 98 42 34 15 65 28 68
28 3 0 81 37 173 82 155 77 336 184 389 232 58 52 158 154 172 175 8 13 40 50
70 82 30 32 60 64 67 71 6 7 22 22 35 33 30 27 322 215 333 215 5 0 52 28 104
63 130 85 151 107 115 121 -31 12 -51 3 -169 -75z"/>
<path d="M6460 2809 c0 -6 -6 -16 -12 -23 -7 -8 -20 -24 -28 -36 -8 -12 -23
-31 -32 -42 -10 -12 -18 -25 -18 -30 0 -9 -11 -24 -47 -63 -13 -13 -23 -28
-23 -33 0 -5 -8 -18 -17 -30 -10 -11 -25 -30 -33 -42 -8 -12 -22 -30 -30 -40
-8 -10 -22 -28 -30 -40 -8 -12 -26 -35 -40 -50 -14 -15 -32 -38 -40 -50 -28
-41 -84 -109 -145 -175 -22 -24 -47 -53 -55 -65 -8 -12 -40 -49 -70 -81 -30
-32 -68 -75 -85 -95 -16 -19 -119 -125 -227 -235 -109 -110 -198 -204 -198
-209 0 -32 52 11 228 189 108 110 211 216 227 236 17 20 36 41 43 48 49 47 69
67 82 87 8 12 33 41 55 65 61 66 117 134 145 175 8 12 26 35 40 50 14 15 32
38 40 50 8 12 22 30 30 40 8 10 22 28 30 40 8 12 23 32 32 43 31 38 58 71 78
96 11 13 20 28 20 33 0 5 6 15 13 22 6 8 19 24 27 36 8 12 21 29 29 37 14 14
29 103 17 103 -3 0 -6 -5 -6 -11z"/>
<path d="M5375 2785 c-5 -2 -64 -15 -130 -30 -116 -26 -169 -40 -415 -107 -63
-17 -134 -36 -157 -42 -24 -6 -43 -15 -43 -20 0 -11 38 -4 175 34 159 44 395
104 508 130 53 12 97 26 97 31 0 9 -15 11 -35 4z"/>
<path d="M10555 2691 c-12 -12 -108 -66 -155 -87 -19 -9 -54 -24 -76 -35 -23
-10 -63 -23 -89 -29 -60 -13 -87 -28 -79 -42 21 -33 232 43 408 147 45 26 47
29 30 42 -21 16 -27 16 -39 4z"/>
<path d="M6186 2235 c-9 -9 -16 -22 -16 -29 0 -6 -9 -18 -20 -26 -11 -8 -20
-19 -20 -26 0 -6 -9 -21 -20 -34 -11 -13 -20 -27 -20 -32 0 -8 -9 -20 -37 -53
-7 -7 -13 -18 -13 -23 0 -8 -11 -23 -50 -69 -5 -7 -10 -15 -10 -18 0 -4 -6
-12 -12 -19 -7 -8 -20 -24 -28 -36 -8 -12 -23 -31 -32 -42 -10 -12 -18 -25
-18 -30 0 -10 -5 -16 -50 -67 -27 -30 -38 -51 -25 -51 6 0 48 44 65 70 8 12
22 30 30 40 8 10 22 28 30 40 8 13 25 33 38 46 12 13 22 27 22 32 0 5 8 18 18
30 40 49 52 67 52 79 0 7 4 13 9 13 5 0 13 10 17 22 7 22 15 33 50 72 12 12
25 32 28 44 4 12 11 22 16 22 9 0 24 50 17 57 -3 2 -12 -3 -21 -12z"/>
<path d="M8050 1778 c32 -20 125 -69 245 -130 99 -51 181 -87 223 -98 42 -11
82 -6 82 10 0 9 -62 40 -82 40 -11 0 -56 21 -145 68 -13 7 -32 17 -43 22 -12
6 -47 25 -78 42 -110 60 -131 68 -184 68 l-53 0 35 -22z"/>
<path d="M9470 1735 c-35 -36 -89 -83 -121 -105 -18 -13 -36 -27 -39 -30 -3
-3 -21 -17 -40 -30 -19 -12 -40 -29 -45 -35 -6 -7 -37 -29 -70 -50 -33 -21
-64 -44 -70 -51 -12 -15 -213 -144 -224 -144 -4 0 -35 -17 -67 -37 -73 -46
-408 -213 -428 -213 -3 0 -34 -13 -68 -28 -35 -16 -79 -35 -98 -42 -19 -8 -51
-22 -70 -32 -19 -9 -135 -50 -257 -90 -123 -40 -223 -78 -223 -84 0 -19 28
-24 74 -14 52 11 384 125 446 152 25 11 60 27 78 34 65 28 137 59 212 92 81
35 307 146 332 164 14 10 31 18 36 18 12 0 352 217 367 234 6 7 26 23 45 36
35 25 49 36 85 68 11 9 36 28 55 42 47 34 106 87 139 126 12 14 12 17 0 25
-20 13 -33 11 -49 -6z"/>
<path d="M4700 1661 c-36 -14 -69 -29 -75 -33 -5 -3 -30 -11 -55 -18 -25 -6
-58 -18 -75 -25 -48 -22 -388 -130 -545 -174 -80 -23 -167 -47 -195 -55 -47
-14 -209 -46 -300 -60 -80 -13 -95 -18 -95 -32 0 -9 10 -14 28 -14 47 0 250
40 392 77 74 19 149 39 165 43 110 28 531 162 582 185 17 8 36 15 43 15 7 0
26 7 43 15 18 8 66 27 107 43 45 18 76 36 78 46 5 22 -20 19 -98 -13z"/>
<path d="M2720 1630 c-63 -9 -173 -25 -245 -34 -71 -10 -132 -20 -134 -22 -17
-17 42 -13 262 15 290 38 307 40 307 52 0 12 -55 9 -190 -11z"/>
<path d="M3380 1554 c-132 -24 -690 -97 -877 -115 -103 -9 -133 -15 -133 -26
0 -17 9 -16 380 28 499 59 770 102 770 120 0 12 -49 10 -140 -7z"/>
<path d="M8855 1511 c-10 -10 -227 -123 -320 -168 -27 -13 -61 -30 -75 -39
-14 -8 -51 -27 -82 -42 -56 -26 -72 -42 -45 -42 13 0 94 40 416 206 74 38 136
75 139 82 4 14 -20 16 -33 3z"/>
<path d="M4565 1455 c-55 -18 -185 -58 -290 -90 -104 -32 -224 -68 -265 -80
-41 -13 -121 -36 -177 -51 -57 -15 -103 -32 -103 -37 0 -14 68 -1 204 40 67
19 135 39 151 43 17 4 89 26 160 49 72 23 200 63 285 89 135 42 175 61 143 68
-4 1 -53 -12 -108 -31z"/>
<path d="M6827 1058 c-3 -13 -6 -72 -6 -132 0 -60 -5 -112 -10 -115 -5 -3 -12
-57 -16 -118 -4 -62 -11 -113 -16 -113 -5 0 -9 -13 -9 -29 0 -21 6 -32 21 -36
29 -9 39 9 39 72 0 28 4 53 9 55 6 2 13 99 17 221 6 192 5 217 -8 217 -9 0
-18 -10 -21 -22z"/>
<path d="M5850 709 c-85 -10 -234 -25 -330 -34 -96 -9 -183 -18 -192 -21 -21
-6 -23 -20 -5 -27 26 -9 752 65 766 79 10 10 -24 24 -54 23 -16 -1 -100 -9
-185 -20z"/>
<path d="M6250 704 c-30 -7 -80 -18 -110 -23 -30 -6 -116 -22 -190 -36 -152
-29 -387 -58 -595 -75 -170 -13 -196 -18 -174 -31 20 -11 340 13 539 40 310
43 620 107 620 128 0 16 -17 15 -90 -3z"/>
<path d="M6355 624 c-180 -38 -230 -47 -575 -103 -636 -103 -940 -131 -1430
-131 -343 0 -521 9 -718 35 -111 16 -147 12 -114 -11 75 -52 902 -82 1348 -49
423 32 1059 125 1540 226 114 23 144 34 144 54 0 20 -6 19 -195 -21z"/>
<path d="M4723 7993 c9 -2 25 -2 35 0 9 3 1 5 -18 5 -19 0 -27 -2 -17 -5z"/>
<path d="M3880 7980 c-9 -6 -10 -10 -3 -10 6 0 15 5 18 10 8 12 4 12 -15 0z"/>
<path d="M4813 7983 c9 -2 25 -2 35 0 9 3 1 5 -18 5 -19 0 -27 -2 -17 -5z"/>
<path d="M4908 7973 c6 -2 18 -2 25 0 6 3 1 5 -13 5 -14 0 -19 -2 -12 -5z"/>
<path d="M4978 7963 c7 -3 16 -2 19 1 4 3 -2 6 -13 5 -11 0 -14 -3 -6 -6z"/>
<path d="M5038 7953 c6 -2 18 -2 25 0 6 3 1 5 -13 5 -14 0 -19 -2 -12 -5z"/>
<path d="M5108 7943 c7 -3 16 -2 19 1 4 3 -2 6 -13 5 -11 0 -14 -3 -6 -6z"/>
<path d="M5168 7933 c7 -3 16 -2 19 1 4 3 -2 6 -13 5 -11 0 -14 -3 -6 -6z"/>
<path d="M5258 7913 c7 -3 16 -2 19 1 4 3 -2 6 -13 5 -11 0 -14 -3 -6 -6z"/>
<path d="M5308 7903 c7 -3 16 -2 19 1 4 3 -2 6 -13 5 -11 0 -14 -3 -6 -6z"/>
<path d="M5418 7883 c7 -3 16 -2 19 1 4 3 -2 6 -13 5 -11 0 -14 -3 -6 -6z"/>
<path d="M5458 7873 c7 -3 16 -2 19 1 4 3 -2 6 -13 5 -11 0 -14 -3 -6 -6z"/>
<path d="M5508 7863 c7 -3 16 -2 19 1 4 3 -2 6 -13 5 -11 0 -14 -3 -6 -6z"/>
<path d="M5558 7853 c7 -3 16 -2 19 1 4 3 -2 6 -13 5 -11 0 -14 -3 -6 -6z"/>
<path d="M5598 7843 c7 -3 16 -2 19 1 4 3 -2 6 -13 5 -11 0 -14 -3 -6 -6z"/>
<path d="M5648 7833 c7 -3 16 -2 19 1 4 3 -2 6 -13 5 -11 0 -14 -3 -6 -6z"/>
<path d="M5698 7823 c7 -3 16 -2 19 1 4 3 -2 6 -13 5 -11 0 -14 -3 -6 -6z"/>
<path d="M5868 7783 c7 -3 16 -2 19 1 4 3 -2 6 -13 5 -11 0 -14 -3 -6 -6z"/>
<path d="M5908 7773 c7 -3 16 -2 19 1 4 3 -2 6 -13 5 -11 0 -14 -3 -6 -6z"/>
<path d="M6038 7743 c7 -3 16 -2 19 1 4 3 -2 6 -13 5 -11 0 -14 -3 -6 -6z"/>
<path d="M6078 7733 c7 -3 16 -2 19 1 4 3 -2 6 -13 5 -11 0 -14 -3 -6 -6z"/>
<path d="M6158 7713 c7 -3 16 -2 19 1 4 3 -2 6 -13 5 -11 0 -14 -3 -6 -6z"/>
<path d="M6278 7683 c7 -3 16 -2 19 1 4 3 -2 6 -13 5 -11 0 -14 -3 -6 -6z"/>
<path d="M3560 7635 c0 -14 5 -25 10 -25 6 0 10 11 10 25 0 14 -4 25 -10 25
-5 0 -10 -11 -10 -25z"/>
<path d="M6408 7653 c7 -3 16 -2 19 1 4 3 -2 6 -13 5 -11 0 -14 -3 -6 -6z"/>
<path d="M3560 7445 c0 -25 5 -45 10 -45 6 0 10 20 10 45 0 25 -4 45 -10 45
-5 0 -10 -20 -10 -45z"/>
<path d="M3582 7350 c0 -14 2 -19 5 -12 2 6 2 18 0 25 -3 6 -5 1 -5 -13z"/>
<path d="M7370 7366 c0 -2 7 -7 16 -10 8 -3 12 -2 9 4 -6 10 -25 14 -25 6z"/>
<path d="M3590 7310 c0 -5 5 -10 10 -10 6 0 10 5 10 10 0 6 -4 10 -10 10 -5 0
-10 -4 -10 -10z"/>
<path d="M3640 7220 c0 -5 5 -10 10 -10 6 0 10 5 10 10 0 6 -4 10 -10 10 -5 0
-10 -4 -10 -10z"/>
<path d="M7927 7129 c7 -7 15 -10 18 -7 3 3 -2 9 -12 12 -14 6 -15 5 -6 -5z"/>
<path d="M8017 7089 c7 -7 15 -10 18 -7 3 3 -2 9 -12 12 -14 6 -15 5 -6 -5z"/>
<path d="M3810 6970 c0 -5 5 -10 10 -10 6 0 10 5 10 10 0 6 -4 10 -10 10 -5 0
-10 -4 -10 -10z"/>
<path d="M8407 6929 c7 -7 15 -10 18 -7 3 3 -2 9 -12 12 -14 6 -15 5 -6 -5z"/>
<path d="M8820 6730 c8 -5 20 -10 25 -10 6 0 3 5 -5 10 -8 5 -19 10 -25 10 -5
0 -3 -5 5 -10z"/>
<path d="M8917 6679 c7 -7 15 -10 18 -7 3 3 -2 9 -12 12 -14 6 -15 5 -6 -5z"/>
<path d="M1698 6633 c39 -2 105 -2 145 0 39 1 7 3 -73 3 -80 0 -112 -2 -72 -3z"/>
<path d="M1543 6623 c9 -2 23 -2 30 0 6 3 -1 5 -18 5 -16 0 -22 -2 -12 -5z"/>
<path d="M1948 6623 c7 -3 16 -2 19 1 4 3 -2 6 -13 5 -11 0 -14 -3 -6 -6z"/>
<path d="M9020 6628 c0 -7 108 -78 117 -78 7 0 -22 21 -89 65 -16 9 -28 15
-28 13z"/>
<path d="M1483 6613 c9 -2 23 -2 30 0 6 3 -1 5 -18 5 -16 0 -22 -2 -12 -5z"/>
<path d="M1438 6603 c7 -3 16 -2 19 1 4 3 -2 6 -13 5 -11 0 -14 -3 -6 -6z"/>
<path d="M4120 6560 c0 -5 5 -10 10 -10 6 0 10 5 10 10 0 6 -4 10 -10 10 -5 0
-10 -4 -10 -10z"/>
<path d="M958 6454 c-38 -20 -36 -28 2 -9 17 9 30 18 30 20 0 7 -1 6 -32 -11z"/>
<path d="M4240 6340 c0 -5 5 -10 10 -10 6 0 10 5 10 10 0 6 -4 10 -10 10 -5 0
-10 -4 -10 -10z"/>
<path d="M4260 6310 c0 -5 5 -10 10 -10 6 0 10 5 10 10 0 6 -4 10 -10 10 -5 0
-10 -4 -10 -10z"/>
<path d="M9560 6286 c0 -3 9 -10 20 -16 11 -6 20 -8 20 -6 0 3 -9 10 -20 16
-11 6 -20 8 -20 6z"/>
<path d="M4281 6264 c0 -11 3 -14 6 -6 3 7 2 16 -1 19 -3 4 -6 -2 -5 -13z"/>
<path d="M4290 6220 c0 -11 5 -20 10 -20 6 0 10 9 10 20 0 11 -4 20 -10 20 -5
0 -10 -9 -10 -20z"/>
<path d="M4320 6095 c0 -8 5 -15 10 -15 6 0 10 7 10 15 0 8 -4 15 -10 15 -5 0
-10 -7 -10 -15z"/>
<path d="M9817 6099 c7 -7 15 -10 18 -7 3 3 -2 9 -12 12 -14 6 -15 5 -6 -5z"/>
<path d="M600 6090 c0 -5 5 -10 10 -10 6 0 10 5 10 10 0 6 -4 10 -10 10 -5 0
-10 -4 -10 -10z"/>
<path d="M570 6030 c0 -5 5 -10 10 -10 6 0 10 5 10 10 0 6 -4 10 -10 10 -5 0
-10 -4 -10 -10z"/>
<path d="M4341 6014 c0 -11 3 -14 6 -6 3 7 2 16 -1 19 -3 4 -6 -2 -5 -13z"/>
<path d="M540 5955 c0 -8 5 -15 10 -15 6 0 10 7 10 15 0 8 -4 15 -10 15 -5 0
-10 -7 -10 -15z"/>
<path d="M2800 5966 c0 -2 7 -7 16 -10 8 -3 12 -2 9 4 -6 10 -25 14 -25 6z"/>
<path d="M4350 5945 c0 -14 5 -25 10 -25 6 0 10 11 10 25 0 14 -4 25 -10 25
-5 0 -10 -11 -10 -25z"/>
<path d="M531 5904 c0 -11 3 -14 6 -6 3 7 2 16 -1 19 -3 4 -6 -2 -5 -13z"/>
<path d="M10047 5899 c7 -7 15 -10 18 -7 3 3 -2 9 -12 12 -14 6 -15 5 -6 -5z"/>
<path d="M4371 5874 c0 -11 3 -14 6 -6 3 7 2 16 -1 19 -3 4 -6 -2 -5 -13z"/>
<path d="M2950 5849 c26 -17 70 -40 70 -35 0 5 -69 46 -78 46 -4 0 0 -5 8 -11z"/>
<path d="M4380 5820 c0 -5 5 -10 10 -10 6 0 10 5 10 10 0 6 -4 10 -10 10 -5 0
-10 -4 -10 -10z"/>
<path d="M501 5804 c0 -11 3 -14 6 -6 3 7 2 16 -1 19 -3 4 -6 -2 -5 -13z"/>
<path d="M4401 5764 c0 -11 3 -14 6 -6 3 7 2 16 -1 19 -3 4 -6 -2 -5 -13z"/>
<path d="M480 5750 c0 -11 5 -20 10 -20 6 0 10 9 10 20 0 11 -4 20 -10 20 -5
0 -10 -9 -10 -20z"/>
<path d="M3135 5720 c17 -11 35 -20 40 -20 6 0 -5 9 -23 20 -42 26 -56 26 -17
0z"/>
<path d="M4410 5705 c0 -8 5 -15 10 -15 6 0 10 7 10 15 0 8 -4 15 -10 15 -5 0
-10 -7 -10 -15z"/>
<path d="M460 5695 c0 -8 5 -15 10 -15 6 0 10 7 10 15 0 8 -4 15 -10 15 -5 0
-10 -7 -10 -15z"/>
<path d="M4430 5655 c0 -8 5 -15 10 -15 6 0 10 7 10 15 0 8 -4 15 -10 15 -5 0
-10 -7 -10 -15z"/>
<path d="M451 5644 c0 -11 3 -14 6 -6 3 7 2 16 -1 19 -3 4 -6 -2 -5 -13z"/>
<path d="M430 5600 c0 -5 5 -10 10 -10 6 0 10 5 10 10 0 6 -4 10 -10 10 -5 0
-10 -4 -10 -10z"/>
<path d="M4460 5570 c0 -5 5 -10 10 -10 6 0 10 5 10 10 0 6 -4 10 -10 10 -5 0
-10 -4 -10 -10z"/>
<path d="M400 5520 c0 -5 5 -10 10 -10 6 0 10 5 10 10 0 6 -4 10 -10 10 -5 0
-10 -4 -10 -10z"/>
<path d="M4490 5500 c0 -5 5 -10 10 -10 6 0 10 5 10 10 0 6 -4 10 -10 10 -5 0
-10 -4 -10 -10z"/>
<path d="M391 5474 c0 -11 3 -14 6 -6 3 7 2 16 -1 19 -3 4 -6 -2 -5 -13z"/>
<path d="M370 5435 c0 -8 5 -15 10 -15 6 0 10 7 10 15 0 8 -4 15 -10 15 -5 0
-10 -7 -10 -15z"/>
<path d="M361 5394 c0 -11 3 -14 6 -6 3 7 2 16 -1 19 -3 4 -6 -2 -5 -13z"/>
<path d="M4550 5370 c0 -5 5 -10 10 -10 6 0 10 5 10 10 0 6 -4 10 -10 10 -5 0
-10 -4 -10 -10z"/>
<path d="M340 5345 c0 -8 5 -15 10 -15 6 0 10 7 10 15 0 8 -4 15 -10 15 -5 0
-10 -7 -10 -15z"/>
<path d="M4570 5340 c0 -5 5 -10 10 -10 6 0 10 5 10 10 0 6 -4 10 -10 10 -5 0
-10 -4 -10 -10z"/>
<path d="M332 5290 c0 -14 2 -19 5 -12 2 6 2 18 0 25 -3 6 -5 1 -5 -13z"/>
<path d="M310 5240 c0 -5 5 -10 10 -10 6 0 10 5 10 10 0 6 -4 10 -10 10 -5 0
-10 -4 -10 -10z"/>
<path d="M3807 5239 c7 -7 15 -10 18 -7 3 3 -2 9 -12 12 -14 6 -15 5 -6 -5z"/>
<path d="M290 5180 c0 -5 5 -10 10 -10 6 0 10 5 10 10 0 6 -4 10 -10 10 -5 0
-10 -4 -10 -10z"/>
<path d="M4690 5140 c0 -5 5 -10 10 -10 6 0 10 5 10 10 0 6 -4 10 -10 10 -5 0
-10 -4 -10 -10z"/>
<path d="M281 5124 c0 -11 3 -14 6 -6 3 7 2 16 -1 19 -3 4 -6 -2 -5 -13z"/>
<path d="M260 5065 c0 -8 5 -15 10 -15 6 0 10 7 10 15 0 8 -4 15 -10 15 -5 0
-10 -7 -10 -15z"/>
<path d="M230 4970 c0 -5 5 -10 10 -10 6 0 10 5 10 10 0 6 -4 10 -10 10 -5 0
-10 -4 -10 -10z"/>
<path d="M200 4880 c0 -11 5 -20 10 -20 6 0 10 9 10 20 0 11 -4 20 -10 20 -5
0 -10 -9 -10 -20z"/>
<path d="M170 4780 c0 -5 5 -10 10 -10 6 0 10 5 10 10 0 6 -4 10 -10 10 -5 0
-10 -4 -10 -10z"/>
<path d="M4717 4749 c7 -7 15 -10 18 -7 3 3 -2 9 -12 12 -14 6 -15 5 -6 -5z"/>
<path d="M150 4735 c0 -8 5 -15 10 -15 6 0 10 7 10 15 0 8 -4 15 -10 15 -5 0
-10 -7 -10 -15z"/>
<path d="M10950 4740 c0 -5 5 -10 10 -10 6 0 10 5 10 10 0 6 -4 10 -10 10 -5
0 -10 -4 -10 -10z"/>
<path d="M4827 4699 c7 -7 15 -10 18 -7 3 3 -2 9 -12 12 -14 6 -15 5 -6 -5z"/>
<path d="M142 4680 c0 -14 2 -19 5 -12 2 6 2 18 0 25 -3 6 -5 1 -5 -13z"/>
<path d="M10980 4680 c0 -5 5 -10 10 -10 6 0 10 5 10 10 0 6 -4 10 -10 10 -5
0 -10 -4 -10 -10z"/>
<path d="M120 4615 c0 -8 5 -15 10 -15 6 0 10 7 10 15 0 8 -4 15 -10 15 -5 0
-10 -7 -10 -15z"/>
<path d="M11010 4605 c0 -8 5 -15 10 -15 6 0 10 7 10 15 0 8 -4 15 -10 15 -5
0 -10 -7 -10 -15z"/>
<path d="M5107 4589 c7 -7 15 -10 18 -7 3 3 -2 9 -12 12 -14 6 -15 5 -6 -5z"/>
<path d="M11030 4570 c0 -5 5 -10 10 -10 6 0 10 5 10 10 0 6 -4 10 -10 10 -5
0 -10 -4 -10 -10z"/>
<path d="M111 4544 c0 -11 3 -14 6 -6 3 7 2 16 -1 19 -3 4 -6 -2 -5 -13z"/>
<path d="M90 4490 c0 -5 5 -10 10 -10 6 0 10 5 10 10 0 6 -4 10 -10 10 -5 0
-10 -4 -10 -10z"/>
<path d="M11060 4490 c0 -5 5 -10 10 -10 6 0 10 5 10 10 0 6 -4 10 -10 10 -5
0 -10 -4 -10 -10z"/>
<path d="M90 4455 c0 -8 5 -15 10 -15 6 0 10 7 10 15 0 8 -4 15 -10 15 -5 0
-10 -7 -10 -15z"/>
<path d="M11081 4444 c0 -11 3 -14 6 -6 3 7 2 16 -1 19 -3 4 -6 -2 -5 -13z"/>
<path d="M82 4370 c0 -19 2 -27 5 -17 2 9 2 25 0 35 -3 9 -5 1 -5 -18z"/>
<path d="M11111 4364 c0 -11 3 -14 6 -6 3 7 2 16 -1 19 -3 4 -6 -2 -5 -13z"/>
<path d="M11120 4315 c0 -8 5 -15 10 -15 6 0 10 7 10 15 0 8 -4 15 -10 15 -5
0 -10 -7 -10 -15z"/>
<path d="M60 4265 c0 -19 5 -35 10 -35 6 0 10 16 10 35 0 19 -4 35 -10 35 -5
0 -10 -16 -10 -35z"/>
<path d="M11141 4264 c0 -11 3 -14 6 -6 3 7 2 16 -1 19 -3 4 -6 -2 -5 -13z"/>
<path d="M11150 4210 c0 -5 5 -10 10 -10 6 0 10 5 10 10 0 6 -4 10 -10 10 -5
0 -10 -4 -10 -10z"/>
<path d="M52 4170 c0 -14 2 -19 5 -12 2 6 2 18 0 25 -3 6 -5 1 -5 -13z"/>
<path d="M30 4100 c0 -5 5 -10 10 -10 6 0 10 5 10 10 0 6 -4 10 -10 10 -5 0
-10 -4 -10 -10z"/>
<path d="M30 4065 c0 -8 5 -15 10 -15 6 0 10 7 10 15 0 8 -4 15 -10 15 -5 0
-10 -7 -10 -15z"/>
<path d="M11180 4055 c0 -8 5 -15 10 -15 6 0 10 7 10 15 0 8 -4 15 -10 15 -5
0 -10 -7 -10 -15z"/>
<path d="M22 3955 c0 -16 2 -22 5 -12 2 9 2 23 0 30 -3 6 -5 -1 -5 -18z"/>
<path d="M0 3850 c0 -22 5 -40 10 -40 6 0 10 18 10 40 0 22 -4 40 -10 40 -5 0
-10 -18 -10 -40z"/>
<path d="M11180 3020 c0 -11 5 -20 10 -20 6 0 10 9 10 20 0 11 -4 20 -10 20
-5 0 -10 -9 -10 -20z"/>
<path d="M11171 2934 c0 -11 3 -14 6 -6 3 7 2 16 -1 19 -3 4 -6 -2 -5 -13z"/>
<path d="M11150 2860 c0 -5 5 -10 10 -10 6 0 10 5 10 10 0 6 -4 10 -10 10 -5
0 -10 -4 -10 -10z"/>
<path d="M11142 2810 c0 -14 2 -19 5 -12 2 6 2 18 0 25 -3 6 -5 1 -5 -13z"/>
<path d="M0 2780 c0 -16 5 -30 10 -30 6 0 10 14 10 30 0 17 -4 30 -10 30 -5 0
-10 -13 -10 -30z"/>
<path d="M11120 2750 c0 -11 5 -20 10 -20 6 0 10 9 10 20 0 11 -4 20 -10 20
-5 0 -10 -9 -10 -20z"/>
<path d="M11111 2704 c0 -11 3 -14 6 -6 3 7 2 16 -1 19 -3 4 -6 -2 -5 -13z"/>
<path d="M21 2684 c0 -11 3 -14 6 -6 3 7 2 16 -1 19 -3 4 -6 -2 -5 -13z"/>
<path d="M11090 2670 c0 -5 5 -10 10 -10 6 0 10 5 10 10 0 6 -4 10 -10 10 -5
0 -10 -4 -10 -10z"/>
<path d="M30 2595 c0 -8 5 -15 10 -15 6 0 10 7 10 15 0 8 -4 15 -10 15 -5 0
-10 -7 -10 -15z"/>
<path d="M11060 2580 c0 -5 5 -10 10 -10 6 0 10 5 10 10 0 6 -4 10 -10 10 -5
0 -10 -4 -10 -10z"/>
<path d="M11051 2544 c0 -11 3 -14 6 -6 3 7 2 16 -1 19 -3 4 -6 -2 -5 -13z"/>
<path d="M51 2514 c0 -11 3 -14 6 -6 3 7 2 16 -1 19 -3 4 -6 -2 -5 -13z"/>
<path d="M11030 2510 c0 -5 5 -10 10 -10 6 0 10 5 10 10 0 6 -4 10 -10 10 -5
0 -10 -4 -10 -10z"/>
<path d="M11010 2470 c0 -5 5 -10 10 -10 6 0 10 5 10 10 0 6 -4 10 -10 10 -5
0 -10 -4 -10 -10z"/>
<path d="M60 2445 c0 -14 5 -25 10 -25 6 0 10 11 10 25 0 14 -4 25 -10 25 -5
0 -10 -11 -10 -25z"/>
<path d="M81 2374 c0 -11 3 -14 6 -6 3 7 2 16 -1 19 -3 4 -6 -2 -5 -13z"/>
<path d="M10950 2350 c0 -5 5 -10 10 -10 6 0 10 5 10 10 0 6 -4 10 -10 10 -5
0 -10 -4 -10 -10z"/>
<path d="M90 2315 c0 -8 5 -15 10 -15 6 0 10 7 10 15 0 8 -4 15 -10 15 -5 0
-10 -7 -10 -15z"/>
<path d="M10920 2290 c0 -5 5 -10 10 -10 6 0 10 5 10 10 0 6 -4 10 -10 10 -5
0 -10 -4 -10 -10z"/>
<path d="M120 2215 c0 -8 5 -15 10 -15 6 0 10 7 10 15 0 8 -4 15 -10 15 -5 0
-10 -7 -10 -15z"/>
<path d="M141 2174 c0 -11 3 -14 6 -6 3 7 2 16 -1 19 -3 4 -6 -2 -5 -13z"/>
<path d="M150 2130 c0 -5 5 -10 10 -10 6 0 10 5 10 10 0 6 -4 10 -10 10 -5 0
-10 -4 -10 -10z"/>
<path d="M230 1960 c0 -5 5 -10 10 -10 6 0 10 5 10 10 0 6 -4 10 -10 10 -5 0
-10 -4 -10 -10z"/>
<path d="M260 1900 c0 -5 5 -10 10 -10 6 0 10 5 10 10 0 6 -4 10 -10 10 -5 0
-10 -4 -10 -10z"/>
<path d="M310 1820 c0 -5 5 -10 10 -10 6 0 10 5 10 10 0 6 -4 10 -10 10 -5 0
-10 -4 -10 -10z"/>
<path d="M9966 1249 c-33 -21 -55 -39 -50 -39 5 0 36 18 69 40 33 22 56 40 50
39 -5 0 -37 -18 -69 -40z"/>
<path d="M9797 1151 c-40 -26 -47 -36 -12 -18 42 23 62 37 50 36 -5 0 -22 -8
-38 -18z"/>
<path d="M9572 1016 c-44 -31 -55 -45 -17 -21 52 32 70 45 60 45 -6 -1 -25
-11 -43 -24z"/>
<path d="M1400 770 c8 -5 20 -10 25 -10 6 0 3 5 -5 10 -8 5 -19 10 -25 10 -5
0 -3 -5 5 -10z"/>
<path d="M9025 750 c-3 -6 1 -7 9 -4 18 7 21 14 7 14 -6 0 -13 -4 -16 -10z"/>
<path d="M1470 736 c0 -2 7 -7 16 -10 8 -3 12 -2 9 4 -6 10 -25 14 -25 6z"/>
<path d="M1780 606 c0 -2 7 -7 16 -10 8 -3 12 -2 9 4 -6 10 -25 14 -25 6z"/>
<path d="M2500 350 c8 -5 20 -10 25 -10 6 0 3 5 -5 10 -8 5 -19 10 -25 10 -5
0 -3 -5 5 -10z"/>
<path d="M7658 303 c7 -3 16 -2 19 1 4 3 -2 6 -13 5 -11 0 -14 -3 -6 -6z"/>
<path d="M7618 293 c7 -3 16 -2 19 1 4 3 -2 6 -13 5 -11 0 -14 -3 -6 -6z"/>
<path d="M7568 283 c7 -3 16 -2 19 1 4 3 -2 6 -13 5 -11 0 -14 -3 -6 -6z"/>
<path d="M7518 273 c7 -3 16 -2 19 1 4 3 -2 6 -13 5 -11 0 -14 -3 -6 -6z"/>
<path d="M7478 263 c7 -3 16 -2 19 1 4 3 -2 6 -13 5 -11 0 -14 -3 -6 -6z"/>
<path d="M7428 253 c7 -3 16 -2 19 1 4 3 -2 6 -13 5 -11 0 -14 -3 -6 -6z"/>
<path d="M7368 243 c7 -3 16 -2 19 1 4 3 -2 6 -13 5 -11 0 -14 -3 -6 -6z"/>
<path d="M7318 233 c7 -3 16 -2 19 1 4 3 -2 6 -13 5 -11 0 -14 -3 -6 -6z"/>
<path d="M7258 223 c7 -3 16 -2 19 1 4 3 -2 6 -13 5 -11 0 -14 -3 -6 -6z"/>
<path d="M7208 213 c7 -3 16 -2 19 1 4 3 -2 6 -13 5 -11 0 -14 -3 -6 -6z"/>
<path d="M7148 203 c7 -3 16 -2 19 1 4 3 -2 6 -13 5 -11 0 -14 -3 -6 -6z"/>
<path d="M7088 193 c7 -3 16 -2 19 1 4 3 -2 6 -13 5 -11 0 -14 -3 -6 -6z"/>
<path d="M7038 183 c7 -3 16 -2 19 1 4 3 -2 6 -13 5 -11 0 -14 -3 -6 -6z"/>
<path d="M6918 163 c7 -3 16 -2 19 1 4 3 -2 6 -13 5 -11 0 -14 -3 -6 -6z"/>
<path d="M6858 153 c7 -3 16 -2 19 1 4 3 -2 6 -13 5 -11 0 -14 -3 -6 -6z"/>
<path d="M6783 143 c9 -2 23 -2 30 0 6 3 -1 5 -18 5 -16 0 -22 -2 -12 -5z"/>
<path d="M6613 123 c9 -2 23 -2 30 0 6 3 -1 5 -18 5 -16 0 -22 -2 -12 -5z"/>
<path d="M6523 113 c9 -2 25 -2 35 0 9 3 1 5 -18 5 -19 0 -27 -2 -17 -5z"/>
<path d="M6448 103 c6 -2 18 -2 25 0 6 3 1 5 -13 5 -14 0 -19 -2 -12 -5z"/>
<path d="M6333 93 c9 -2 23 -2 30 0 6 3 -1 5 -18 5 -16 0 -22 -2 -12 -5z"/>
<path d="M6223 83 c15 -2 37 -2 50 0 12 2 0 4 -28 4 -27 0 -38 -2 -22 -4z"/>
<path d="M6083 73 c9 -2 25 -2 35 0 9 3 1 5 -18 5 -19 0 -27 -2 -17 -5z"/>
<path d="M3448 63 c7 -3 16 -2 19 1 4 3 -2 6 -13 5 -11 0 -14 -3 -6 -6z"/>
<path d="M5933 63 c9 -2 25 -2 35 0 9 3 1 5 -18 5 -19 0 -27 -2 -17 -5z"/>
<path d="M3498 53 c7 -3 16 -2 19 1 4 3 -2 6 -13 5 -11 0 -14 -3 -6 -6z"/>
<path d="M5773 53 c9 -2 25 -2 35 0 9 3 1 5 -18 5 -19 0 -27 -2 -17 -5z"/>
<path d="M5848 53 c7 -3 16 -2 19 1 4 3 -2 6 -13 5 -11 0 -14 -3 -6 -6z"/>
<path d="M3538 43 c7 -3 16 -2 19 1 4 3 -2 6 -13 5 -11 0 -14 -3 -6 -6z"/>
<path d="M5638 43 c18 -2 45 -2 60 0 15 2 0 4 -33 4 -33 0 -45 -2 -27 -4z"/>
<path d="M3588 33 c6 -2 18 -2 25 0 6 3 1 5 -13 5 -14 0 -19 -2 -12 -5z"/>
<path d="M5468 33 c18 -2 45 -2 60 0 15 2 0 4 -33 4 -33 0 -45 -2 -27 -4z"/>
<path d="M5328 23 c12 -2 30 -2 40 0 9 3 -1 5 -23 4 -22 0 -30 -2 -17 -4z"/>
<path d="M3728 13 c7 -3 16 -2 19 1 4 3 -2 6 -13 5 -11 0 -14 -3 -6 -6z"/>
<path d="M5173 13 c9 -2 25 -2 35 0 9 3 1 5 -18 5 -19 0 -27 -2 -17 -5z"/>
<path d="M5248 13 c7 -3 16 -2 19 1 4 3 -2 6 -13 5 -11 0 -14 -3 -6 -6z"/>
<path d="M3793 3 c9 -2 25 -2 35 0 9 3 1 5 -18 5 -19 0 -27 -2 -17 -5z"/>
<path d="M4988 3 c12 -2 32 -2 45 0 12 2 2 4 -23 4 -25 0 -35 -2 -22 -4z"/>
<path d="M5078 3 c7 -3 16 -2 19 1 4 3 -2 6 -13 5 -11 0 -14 -3 -6 -6z"/>
</g>
</svg>
